<svg width="24" height="24" viewBox="0 0 24 24" fill="none" xmlns="http://www.w3.org/2000/svg">
<path d="M17 13C17.5523 13 18 12.5523 18 12C18 11.4477 17.5523 11 17 11V13ZM15.5 12V11C15.0876 11 14.7175 11.2532 14.568 11.6376L15.5 12ZM13.75 16.5L12.818 16.8624C12.9675 17.2468 13.3376 17.5 13.75 17.5C14.1624 17.5 14.5325 17.2468 14.682 16.8624L13.75 16.5ZM10.25 7.5L11.182 7.13756C11.0325 6.75318 10.6624 6.5 10.25 6.5C9.83759 6.5 9.46747 6.75318 9.318 7.13756L10.25 7.5ZM8.5 12V13C8.91241 13 9.28253 12.7468 9.432 12.3624L8.5 12ZM7 11C6.44772 11 6 11.4477 6 12C6 12.5523 6.44772 13 7 13V11ZM6 4H18V2H6V4ZM20 6V18H22V6H20ZM18 20H6V22H18V20ZM4 18V6H2V18H4ZM6 20C4.89543 20 4 19.1046 4 18H2C2 20.2091 3.79086 22 6 22V20ZM20 18C20 19.1046 19.1046 20 18 20V22C20.2091 22 22 20.2091 22 18H20ZM18 4C19.1046 4 20 4.89543 20 6H22C22 3.79086 20.2091 2 18 2V4ZM6 2C3.79086 2 2 3.79086 2 6H4C4 4.89543 4.89543 4 6 4V2ZM17 11H15.5V13H17V11ZM14.568 11.6376L12.818 16.1376L14.682 16.8624L16.432 12.3624L14.568 11.6376ZM14.682 16.1376L11.182 7.13756L9.318 7.86245L12.818 16.8624L14.682 16.1376ZM9.318 7.13756L7.568 11.6376L9.432 12.3624L11.182 7.86245L9.318 7.13756ZM8.5 11H7V13H8.5V11Z" fill="#33425B"/>
</svg>
