<svg width="24" height="24" viewBox="0 0 24 24" fill="none" xmlns="http://www.w3.org/2000/svg">
<path d="M20 2.50003V5.00003M20 5.00003H19C18.4477 5.00003 18 5.44775 18 6.00003V11C18 11.5523 18.4477 12 19 12H20M20 5.00003H21C21.5523 5.00003 22 5.44775 22 6.00003V11C22 11.5523 21.5523 12 21 12H20M20 12V14.5M4 7.00003V9.50003M4 9.50003H3C2.44772 9.50003 2 9.94775 2 10.5L2 15.5C2 16.0523 2.44772 16.5 3 16.5H4M4 9.50003H5C5.55228 9.50003 6 9.94775 6 10.5V15.5C6 16.0523 5.55228 16.5 5 16.5H4M4 16.5L4 19M12 2.00003L12 5.50003M12 5.50003H11C10.4477 5.50003 10 5.94775 10 6.50003L10 17.5C10 18.0523 10.4477 18.5 11 18.5H12M12 5.50003H13C13.5523 5.50003 14 5.94775 14 6.50003L14 17.5C14 18.0523 13.5523 18.5 13 18.5H12M12 18.5V22" stroke="#33425B" stroke-width="2" stroke-linecap="round" stroke-linejoin="round"/>
</svg>
