<svg width="24" height="24" viewBox="0 0 24 24" fill="none" xmlns="http://www.w3.org/2000/svg">
<path d="M17.2214 9.99999C17.7737 9.99999 18.2214 9.55227 18.2214 8.99999C18.2214 8.4477 17.7737 7.99999 17.2214 7.99999V9.99999ZM6.77872 7.99999C6.22643 7.99999 5.77872 8.4477 5.77872 8.99999C5.77872 9.55227 6.22643 9.99999 6.77872 9.99999V7.99999ZM20.7194 16C21.2717 16 21.7194 15.5523 21.7194 15C21.7194 14.4477 21.2717 14 20.7194 14V16ZM3.2806 14C2.72832 14 2.2806 14.4477 2.2806 15C2.2806 15.5523 2.72832 16 3.2806 16V14ZM2.41499 16.4847L1.55109 15.981L1.55109 15.981L2.41499 16.4847ZM21.585 16.4847L20.7211 16.9884L20.7211 16.9884L21.585 16.4847ZM14.5918 4.48959L15.4557 3.98593L15.4557 3.98593L14.5918 4.48959ZM9.40837 4.48957L10.2723 4.99324L10.2723 4.99324L9.40837 4.48957ZM17.2214 7.99999H6.77872V9.99999H17.2214V7.99999ZM20.7194 14H3.2806V16H20.7194V14ZM13.7279 4.99325L20.7211 16.9884L22.4489 15.981L15.4557 3.98593L13.7279 4.99325ZM18.9933 19.9957H5.00668V21.9957H18.9933V19.9957ZM3.27889 16.9884L10.2723 4.99324L8.54447 3.98591L1.55109 15.981L3.27889 16.9884ZM5.00668 19.9957C3.46331 19.9957 2.50154 18.3217 3.27889 16.9884L1.55109 15.981C-0.00360241 18.6477 1.91994 21.9957 5.00668 21.9957V19.9957ZM20.7211 16.9884C21.4985 18.3217 20.5367 19.9957 18.9933 19.9957V21.9957C22.0801 21.9957 24.0036 18.6477 22.4489 15.981L20.7211 16.9884ZM15.4557 3.98593C13.9124 1.33881 10.0878 1.33879 8.54447 3.98591L10.2723 4.99324C11.0439 3.66969 12.9562 3.66969 13.7279 4.99325L15.4557 3.98593Z" fill="#33425B"/>
</svg>
