<svg width="24" height="24" viewBox="0 0 24 24" fill="none" xmlns="http://www.w3.org/2000/svg">
<path d="M4 21C3.44772 21 3 20.5523 3 20L3 4C3 3.44772 3.44772 3 4 3L5.6 3C6.15228 3 6.6 3.44772 6.6 4L6.6 20C6.6 20.5523 6.15229 21 5.6 21H4Z" stroke="#33425B" stroke-width="2" stroke-linecap="round" stroke-linejoin="round"/>
<path d="M11.2 21C10.6477 21 10.2 20.5523 10.2 20L10.2 8C10.2 7.44771 10.6477 7 11.2 7H12.8C13.3522 7 13.8 7.44771 13.8 8V20C13.8 20.5523 13.3522 21 12.8 21H11.2Z" stroke="#33425B" stroke-width="2" stroke-linecap="round" stroke-linejoin="round"/>
<path d="M18.4 21C17.8477 21 17.4 20.5523 17.4 20V12C17.4 11.4477 17.8477 11 18.4 11H20C20.5523 11 21 11.4477 21 12V20C21 20.5523 20.5523 21 20 21H18.4Z" stroke="#33425B" stroke-width="2" stroke-linecap="round" stroke-linejoin="round"/>
</svg>
