<svg width="24" height="24" viewBox="0 0 24 24" fill="none" xmlns="http://www.w3.org/2000/svg">
<path d="M11 21H6C4.34315 21 3 19.6569 3 18V6C3 4.34315 4.34315 3 6 3H18C19.6569 3 21 4.34315 21 6V11M17.998 16.4207L17.9985 16.4195M17.9985 16.4195C18.1989 16.0046 18.6918 15 19.9577 15C21.0412 15 22.0374 16.1263 21.9974 17.3527C21.9704 18.264 21.3575 19.0095 20.6376 19.7137C19.6724 20.6578 18.7854 21.4664 18.3265 21.8784C18.1398 22.0461 17.8584 22.0462 17.6716 21.8786C17.2125 21.4666 16.3248 20.6579 15.3595 19.7137C14.6396 19.0095 14.0267 18.264 13.9997 17.3527C13.9597 16.1263 14.9559 15 16.0394 15C17.3053 15 17.7982 16.0046 17.9985 16.4195ZM17.9985 16.4195L17.9991 16.4207M7.5 14.5L10.198 11.8025C10.5224 11.4781 11.026 11.4161 11.4194 11.6521L12.5805 12.3485C12.974 12.5845 13.4776 12.5224 13.802 12.198L16.5 9.5" stroke="#33425B" stroke-width="2" stroke-linecap="round" stroke-linejoin="round"/>
</svg>
