<svg width="24" height="24" viewBox="0 0 24 24" fill="none" xmlns="http://www.w3.org/2000/svg">
<path d="M3 3V18C3 19.6569 4.34315 21 6 21H21M12 12H12.01M9 7H9.01M16 6L16.01 6M19 11H19.01M16 16H16.01M8 15H8.01M12.25 12C12.25 12.1381 12.1381 12.25 12 12.25C11.8619 12.25 11.75 12.1381 11.75 12C11.75 11.8619 11.8619 11.75 12 11.75C12.1381 11.75 12.25 11.8619 12.25 12ZM9.25 7C9.25 7.13807 9.13807 7.25 9 7.25C8.86193 7.25 8.75 7.13807 8.75 7C8.75 6.86193 8.86193 6.75 9 6.75C9.13807 6.75 9.25 6.86193 9.25 7ZM16.25 6C16.25 6.13807 16.1381 6.25 16 6.25C15.8619 6.25 15.75 6.13807 15.75 6C15.75 5.86193 15.8619 5.75 16 5.75C16.1381 5.75 16.25 5.86193 16.25 6ZM19.25 11C19.25 11.1381 19.1381 11.25 19 11.25C18.8619 11.25 18.75 11.1381 18.75 11C18.75 10.8619 18.8619 10.75 19 10.75C19.1381 10.75 19.25 10.8619 19.25 11ZM16.25 16C16.25 16.1381 16.1381 16.25 16 16.25C15.8619 16.25 15.75 16.1381 15.75 16C15.75 15.8619 15.8619 15.75 16 15.75C16.1381 15.75 16.25 15.8619 16.25 16ZM8.25 15C8.25 15.1381 8.13807 15.25 8 15.25C7.86193 15.25 7.75 15.1381 7.75 15C7.75 14.8619 7.86193 14.75 8 14.75C8.13807 14.75 8.25 14.8619 8.25 15Z" stroke="#33425B" stroke-width="2" stroke-linecap="round" stroke-linejoin="round"/>
</svg>
