<svg width="24" height="24" viewBox="0 0 24 24" fill="none" xmlns="http://www.w3.org/2000/svg">
<path d="M9 13C9 12.4477 8.55228 12 8 12C7.44772 12 7 12.4477 7 13H9ZM7 17C7 17.5523 7.44772 18 8 18C8.55228 18 9 17.5523 9 17H7ZM13 7C13 6.44772 12.5523 6 12 6C11.4477 6 11 6.44772 11 7H13ZM11 17C11 17.5523 11.4477 18 12 18C12.5523 18 13 17.5523 13 17H11ZM17 10.5C17 9.94772 16.5523 9.5 16 9.5C15.4477 9.5 15 9.94772 15 10.5H17ZM15 17C15 17.5523 15.4477 18 16 18C16.5523 18 17 17.5523 17 17H15ZM6 4H18V2H6V4ZM20 6V18H22V6H20ZM18 20H6V22H18V20ZM4 18V6H2V18H4ZM6 20C4.89543 20 4 19.1046 4 18H2C2 20.2091 3.79086 22 6 22V20ZM20 18C20 19.1046 19.1046 20 18 20V22C20.2091 22 22 20.2091 22 18H20ZM18 4C19.1046 4 20 4.89543 20 6H22C22 3.79086 20.2091 2 18 2V4ZM6 2C3.79086 2 2 3.79086 2 6H4C4 4.89543 4.89543 4 6 4V2ZM7 13V17H9V13H7ZM11 7V17H13V7H11ZM15 10.5V17H17V10.5H15Z" fill="#33425B"/>
</svg>
