<svg width="24" height="24" viewBox="0 0 24 24" fill="none" xmlns="http://www.w3.org/2000/svg">
<path d="M11 21H6C4.34315 21 3 19.6569 3 18V6C3 4.34315 4.34315 3 6 3H18C19.6569 3 21 4.34315 21 6V11.5M7.5 14.5L10.198 11.8025C10.5224 11.4781 11.026 11.4161 11.4194 11.6521L12.5805 12.3485C12.974 12.5845 13.4776 12.5224 13.802 12.198L16.5 9.5M19.3238 16.8296L18.2218 14.6355C18.1311 14.4548 17.8689 14.4548 17.7782 14.6355L16.6762 16.8296L14.212 17.1814C14.0092 17.2104 13.9282 17.4553 14.075 17.5959L15.858 19.3038L15.4371 21.7153C15.4025 21.9139 15.6145 22.0653 15.796 21.9715L18 20.833L20.204 21.9715C20.3855 22.0653 20.5975 21.9139 20.5629 21.7153L20.142 19.3038L21.925 17.5959C22.0718 17.4553 21.9908 17.2104 21.788 17.1814L19.3238 16.8296Z" stroke="#33425B" stroke-width="2" stroke-linecap="round" stroke-linejoin="round"/>
</svg>
