<svg width="24" height="24" viewBox="0 0 24 24" fill="none" xmlns="http://www.w3.org/2000/svg">
<path d="M12.0004 8.66516L8.25004 11.998M12.0004 8.66516L15.2461 11.2296M12.0004 8.66516V2.00011M8.25004 11.998L9.50004 15.3326M8.25004 11.998L2.13329 9.45126M9.50004 15.3326L14.5 16.8712M9.50004 15.3326L5.8765 21.3752M14.5 16.8712L15.2461 11.2296M14.5 16.8712L18.0534 21.4286M15.2461 11.2296L21.8425 9.3711M2.1464 11.2912L4.83255 19.8642C5.23131 21.1369 6.38545 21.9999 7.68866 21.9999H16.312C17.6152 21.9999 18.7694 21.1369 19.1681 19.8642L21.8543 11.2912C22.2491 10.0311 21.8141 8.65307 20.7741 7.86949L13.7763 2.59714C12.7195 1.80095 11.2811 1.80096 10.2244 2.59714L3.22658 7.86949C2.18656 8.65307 1.75156 10.0311 2.1464 11.2912Z" stroke="#33425B" stroke-width="2" stroke-linecap="round" stroke-linejoin="round"/>
</svg>
