<svg width="24" height="24" viewBox="0 0 24 24" fill="none" xmlns="http://www.w3.org/2000/svg">
<path d="M20 21C20.5523 21 21 20.5523 21 20V4C21 3.44772 20.5523 3 20 3L18.4 3C17.8477 3 17.4 3.44772 17.4 4L17.4 20C17.4 20.5523 17.8477 21 18.4 21H20Z" stroke="#33425B" stroke-width="2" stroke-linecap="round" stroke-linejoin="round"/>
<path d="M12.8002 21C13.3525 21 13.8002 20.5523 13.8002 20L13.8002 8C13.8002 7.44772 13.3525 7 12.8002 7H11.2002C10.6479 7 10.2002 7.44772 10.2002 8L10.2002 20C10.2002 20.5523 10.6479 21 11.2002 21H12.8002Z" stroke="#33425B" stroke-width="2" stroke-linecap="round" stroke-linejoin="round"/>
<path d="M5.59998 21C6.15227 21 6.59998 20.5523 6.59998 20L6.59998 12C6.59998 11.4477 6.15227 11 5.59998 11H3.99999C3.4477 11 2.99998 11.4477 2.99998 12L2.99999 20C2.99999 20.5523 3.4477 21 3.99999 21H5.59998Z" stroke="#33425B" stroke-width="2" stroke-linecap="round" stroke-linejoin="round"/>
</svg>
