<svg width="24" height="24" viewBox="0 0 24 24" fill="none" xmlns="http://www.w3.org/2000/svg">
<path d="M11 9C11.5523 9 12 8.55228 12 8C12 7.44772 11.5523 7 11 7V9ZM7 7C6.44772 7 6 7.44772 6 8C6 8.55228 6.44772 9 7 9V7ZM17 13C17.5523 13 18 12.5523 18 12C18 11.4477 17.5523 11 17 11V13ZM7 11C6.44772 11 6 11.4477 6 12C6 12.5523 6.44772 13 7 13V11ZM13.5 17C14.0523 17 14.5 16.5523 14.5 16C14.5 15.4477 14.0523 15 13.5 15V17ZM7 15C6.44771 15 6 15.4477 6 16C6 16.5523 6.44771 17 7 17V15ZM6 4H18V2H6V4ZM20 6V18H22V6H20ZM18 20H6V22H18V20ZM4 18V6H2V18H4ZM6 20C4.89543 20 4 19.1046 4 18H2C2 20.2091 3.79086 22 6 22V20ZM20 18C20 19.1046 19.1046 20 18 20V22C20.2091 22 22 20.2091 22 18H20ZM18 4C19.1046 4 20 4.89543 20 6H22C22 3.79086 20.2091 2 18 2V4ZM6 2C3.79086 2 2 3.79086 2 6H4C4 4.89543 4.89543 4 6 4V2ZM11 7H7V9H11V7ZM17 11H7V13H17V11ZM13.5 15H7V17H13.5V15Z" fill="#33425B"/>
</svg>
