<svg width="24" height="24" viewBox="0 0 24 24" fill="none" xmlns="http://www.w3.org/2000/svg">
<path d="M4 21C3.44772 21 3 20.5523 3 20L3 8C3 7.44772 3.44772 7 4 7H5.6C6.15228 7 6.6 7.44772 6.6 8L6.6 20C6.6 20.5523 6.15229 21 5.6 21H4Z" stroke="#33425B" stroke-width="2" stroke-linecap="round" stroke-linejoin="round"/>
<path d="M11.2 21C10.6477 21 10.2 20.5523 10.2 20L10.2 4C10.2 3.44772 10.6477 3 11.2 3L12.8 3C13.3522 3 13.8 3.44772 13.8 4L13.8 20C13.8 20.5523 13.3522 21 12.8 21H11.2Z" stroke="#33425B" stroke-width="2" stroke-linecap="round" stroke-linejoin="round"/>
<path d="M18.4 21C17.8477 21 17.4 20.5523 17.4 20L17.4 12C17.4 11.4477 17.8477 11 18.4 11H20C20.5523 11 21 11.4477 21 12V20C21 20.5523 20.5523 21 20 21H18.4Z" stroke="#33425B" stroke-width="2" stroke-linecap="round" stroke-linejoin="round"/>
</svg>
