<svg width="24" height="24" viewBox="0 0 24 24" fill="none" xmlns="http://www.w3.org/2000/svg">
<path d="M6.79296 11.2928C6.4024 11.6833 6.40234 12.3165 6.79283 12.707C7.18332 13.0976 7.81649 13.0977 8.20704 12.7072L6.79296 11.2928ZM10.198 9.30247L9.49096 8.5953L9.49096 8.5953L10.198 9.30247ZM11.4194 9.15206L11.9338 8.29448L11.9338 8.29448L11.4194 9.15206ZM12.5805 9.84848L13.0949 8.9909L13.0949 8.9909L12.5805 9.84848ZM13.802 9.698L13.0949 8.9909L13.0949 8.9909L13.802 9.698ZM17.2071 7.70711C17.5976 7.31658 17.5976 6.68342 17.2071 6.29289C16.8166 5.90237 16.1834 5.90237 15.7929 6.29289L17.2071 7.70711ZM9 16C9 15.4477 8.55228 15 8 15C7.44772 15 7 15.4477 7 16H9ZM7 17C7 17.5523 7.44772 18 8 18C8.55228 18 9 17.5523 9 17H7ZM13 14.5C13 13.9477 12.5523 13.5 12 13.5C11.4477 13.5 11 13.9477 11 14.5H13ZM11 17C11 17.5523 11.4477 18 12 18C12.5523 18 13 17.5523 13 17H11ZM17 13C17 12.4477 16.5523 12 16 12C15.4477 12 15 12.4477 15 13H17ZM15 17C15 17.5523 15.4477 18 16 18C16.5523 18 17 17.5523 17 17H15ZM6 4H18V2H6V4ZM20 6V18H22V6H20ZM18 20H6V22H18V20ZM4 18V6H2V18H4ZM6 20C4.89543 20 4 19.1046 4 18H2C2 20.2091 3.79086 22 6 22V20ZM20 18C20 19.1046 19.1046 20 18 20V22C20.2091 22 22 20.2091 22 18H20ZM18 4C19.1046 4 20 4.89543 20 6H22C22 3.79086 20.2091 2 18 2V4ZM6 2C3.79086 2 2 3.79086 2 6H4C4 4.89543 4.89543 4 6 4V2ZM8.20704 12.7072L10.905 10.0096L9.49096 8.5953L6.79296 11.2928L8.20704 12.7072ZM10.905 10.0096L12.0662 10.7061L13.0949 8.9909L11.9338 8.29448L10.905 10.0096ZM14.5091 10.4051L17.2071 7.70711L15.7929 6.29289L13.0949 8.9909L14.5091 10.4051ZM12.0662 10.7061C12.8531 11.178 13.8603 11.054 14.5091 10.4051L13.0949 8.9909L13.0949 8.9909L12.0662 10.7061ZM10.905 10.0096L10.905 10.0096L11.9338 8.29448C11.1469 7.82254 10.1398 7.94655 9.49096 8.5953L10.905 10.0096ZM7 16V17H9V16H7ZM11 14.5V17H13V14.5H11ZM15 13V17H17V13H15Z" fill="#33425B"/>
</svg>
