<svg width="24" height="24" viewBox="0 0 24 24" fill="none" xmlns="http://www.w3.org/2000/svg">
<path d="M4 3C4 2.44772 3.55228 2 3 2C2.44772 2 2 2.44772 2 3H4ZM21 22C21.5523 22 22 21.5523 22 21C22 20.4477 21.5523 20 21 20V22ZM8 13C8 12.4477 7.55228 12 7 12C6.44772 12 6 12.4477 6 13H8ZM6 17C6 17.5523 6.44772 18 7 18C7.55228 18 8 17.5523 8 17H6ZM12 8C12 7.44772 11.5523 7 11 7C10.4477 7 10 7.44772 10 8H12ZM10 17C10 17.5523 10.4477 18 11 18C11.5523 18 12 17.5523 12 17H10ZM16 11C16 10.4477 15.5523 10 15 10C14.4477 10 14 10.4477 14 11H16ZM14 17C14 17.5523 14.4477 18 15 18C15.5523 18 16 17.5523 16 17H14ZM20 5C20 4.44772 19.5523 4 19 4C18.4477 4 18 4.44772 18 5H20ZM18 17C18 17.5523 18.4477 18 19 18C19.5523 18 20 17.5523 20 17H18ZM2 3V18H4V3H2ZM6 22H21V20H6V22ZM2 18C2 20.2091 3.79086 22 6 22V20C4.89543 20 4 19.1046 4 18H2ZM6 13V17H8V13H6ZM10 8V17H12V8H10ZM14 11V17H16V11H14ZM18 5V17H20V5H18Z" fill="#33425B"/>
</svg>
