<svg width="24" height="24" viewBox="0 0 24 24" fill="none" xmlns="http://www.w3.org/2000/svg">
<path d="M20 17V15C20 13.3431 18.6569 12 17 12H12M12 12H7C5.34315 12 4 13.3431 4 15V17M12 12V7M12 12V17M11 7H13C13.5523 7 14 6.55228 14 6V4C14 3.44772 13.5523 3 13 3H11C10.4477 3 10 3.44772 10 4V6C10 6.55228 10.4477 7 11 7ZM3 21H5C5.55228 21 6 20.5523 6 20V18C6 17.4477 5.55228 17 5 17H3C2.44772 17 2 17.4477 2 18V20C2 20.5523 2.44772 21 3 21ZM11 21H13C13.5523 21 14 20.5523 14 20V18C14 17.4477 13.5523 17 13 17H11C10.4477 17 10 17.4477 10 18V20C10 20.5523 10.4477 21 11 21ZM19 21H21C21.5523 21 22 20.5523 22 20V18C22 17.4477 21.5523 17 21 17H19C18.4477 17 18 17.4477 18 18V20C18 20.5523 18.4477 21 19 21Z" stroke="#33425B" stroke-width="2" stroke-linecap="round" stroke-linejoin="round"/>
</svg>
