<svg width="24" height="24" viewBox="0 0 24 24" fill="none" xmlns="http://www.w3.org/2000/svg">
<path d="M13 8C13 7.44772 12.5523 7 12 7C11.4477 7 11 7.44772 11 8H13ZM5.5 16C5.5 16.5523 5.94772 17 6.5 17C7.05228 17 7.5 16.5523 7.5 16H5.5ZM16.5 16C16.5 16.5523 16.9477 17 17.5 17C18.0523 17 18.5 16.5523 18.5 16H16.5ZM21 13C21.5523 13 22 12.5523 22 12C22 11.4477 21.5523 11 21 11V13ZM3 11C2.44772 11 2 11.4477 2 12C2 12.5523 2.44772 13 3 13V11ZM11 8V12H13V8H11ZM5.5 12V16H7.5V12H5.5ZM16.5 12V16H18.5V12H16.5ZM21 11H17.5V13H21V11ZM17.5 11H12V13H17.5V11ZM12 11H6.5V13H12V11ZM6.5 11H3V13H6.5V11ZM9 4H15V2H9V4ZM15 4V7H17V4H15ZM15 7H9V9H15V7ZM9 7V4H7V7H9ZM9 7H7C7 8.10457 7.89543 9 9 9V7ZM15 7V9C16.1046 9 17 8.10457 17 7H15ZM15 4H17C17 2.89543 16.1046 2 15 2V4ZM9 2C7.89543 2 7 2.89543 7 4H9V4V2ZM4 17H9V15H4V17ZM9 17V20H11V17H9ZM9 20H4V22H9V20ZM4 20V17H2V20H4ZM4 20H4H2C2 21.1046 2.89543 22 4 22V20ZM9 20H9V22C10.1046 22 11 21.1046 11 20H9ZM9 17H11C11 15.8954 10.1046 15 9 15V17ZM4 15C2.89543 15 2 15.8954 2 17H4V15ZM15 17H20V15H15V17ZM20 17V20H22V17H20ZM20 20H15V22H20V20ZM15 20V17H13V20H15ZM15 20H13C13 21.1046 13.8954 22 15 22V20ZM20 20V22C21.1046 22 22 21.1046 22 20H20ZM20 17H22C22 15.8954 21.1046 15 20 15V17ZM15 15C13.8954 15 13 15.8954 13 17H15V15Z" fill="#33425B"/>
</svg>
