<svg width="24" height="24" viewBox="0 0 24 24" fill="none" xmlns="http://www.w3.org/2000/svg">
<path d="M15 12H19M15 12C15 14.2091 13.2091 16 11 16C8.79086 16 7 14.2091 7 12C7 9.79086 8.79086 8 11 8C13.2091 8 15 9.79086 15 12ZM19 12C19 12.5523 19.4477 13 20 13C20.5523 13 21 12.5523 21 12M19 12C19 11.4477 19.4477 11 20 11C20.5523 11 21 11.4477 21 12M19 12H21M8.33378 15.1257L5 19M8.33378 8.89134L4.88601 5M13.3855 8.65329L16.2232 5M13.5 15.5L15.4444 19M18 4C18 4.55228 17.5523 5 17 5C16.4477 5 16 4.55228 16 4M18 4C18 3.44772 17.5523 3 17 3C16.4477 3 16 3.44772 16 4M18 4H16M5 20C5 20.5523 4.55228 21 4 21C3.44772 21 3 20.5523 3 20M5 20C5 19.4477 4.55228 19 4 19C3.44772 19 3 19.4477 3 20M5 20H3M17 20C17 20.5523 16.5523 21 16 21C15.4477 21 15 20.5523 15 20M17 20C17 19.4477 16.5523 19 16 19C15.4477 19 15 19.4477 15 20M17 20H15M5 4C5 4.55228 4.55228 5 4 5C3.44772 5 3 4.55228 3 4M5 4C5 3.44772 4.55228 3 4 3C3.44772 3 3 3.44772 3 4M5 4H3" stroke="#33425B" stroke-width="2" stroke-linecap="round" stroke-linejoin="round"/>
</svg>
