<svg width="24" height="24" viewBox="0 0 24 24" fill="none" xmlns="http://www.w3.org/2000/svg">
<path d="M12 18.5V22M12 18.5L7.5 21.5M12 18.5L16.5 21.5M12 18.5V16M20.5 2V13C20.5 14.6569 19.1569 16 17.5 16H6.5C4.84315 16 3.5 14.6569 3.5 13V2M20.5 2H22M20.5 2H3.5M3.5 2H2M7.5 11.5L10.198 8.80247C10.5224 8.47809 11.026 8.41609 11.4194 8.65206L12.5805 9.34848C12.974 9.58446 13.4776 9.52243 13.802 9.198L16.5 6.5" stroke="#33425B" stroke-width="2" stroke-linecap="round" stroke-linejoin="round"/>
</svg>
