<svg width="24" height="24" viewBox="0 0 24 24" fill="none" xmlns="http://www.w3.org/2000/svg">
<path d="M15.7101 11C16.2624 11 16.7101 10.5523 16.7101 10C16.7101 9.44772 16.2624 9 15.7101 9V11ZM8.28988 9C7.73759 9 7.28988 9.44772 7.28988 10C7.28988 10.5523 7.73759 11 8.28988 11V9ZM15.7101 15C16.2624 15 16.7101 14.5523 16.7101 14C16.7101 13.4477 16.2624 13 15.7101 13V15ZM8.28988 13C7.73759 13 7.28988 13.4477 7.28988 14C7.28988 14.5523 7.73759 15 8.28988 15V13ZM15.7101 9H8.28988V11H15.7101V9ZM15.7101 13H8.28988V15H15.7101V13ZM21 12C21 15.3137 18.3137 18 15 18V20C19.4183 20 23 16.4183 23 12H21ZM15 6C18.3137 6 21 8.68629 21 12H23C23 7.58172 19.4183 4 15 4V6ZM9 12C9 8.68629 11.6863 6 15 6V4C10.5817 4 7 7.58172 7 12H9ZM15 18C11.6863 18 9 15.3137 9 12H7C7 16.4183 10.5817 20 15 20V18ZM15 12C15 15.3137 12.3137 18 9 18V20C13.4183 20 17 16.4183 17 12H15ZM9 6C12.3137 6 15 8.68629 15 12H17C17 7.58172 13.4183 4 9 4V6ZM3 12C3 8.68629 5.68629 6 9 6V4C4.58172 4 1 7.58172 1 12H3ZM9 18C5.68629 18 3 15.3137 3 12H1C1 16.4183 4.58172 20 9 20V18Z" fill="#33425B"/>
</svg>
