<svg width="24" height="24" viewBox="0 0 24 24" fill="none" xmlns="http://www.w3.org/2000/svg">
<path d="M4 7C4 6.44772 3.55228 6 3 6C2.44772 6 2 6.44772 2 7L4 7ZM2 17C2 17.5523 2.44772 18 3 18C3.55229 18 4 17.5523 4 17L2 17ZM16.7071 6.29289C16.3166 5.90237 15.6834 5.90237 15.2929 6.29289C14.9024 6.68342 14.9024 7.31658 15.2929 7.70711L16.7071 6.29289ZM21 12L21.7071 12.7071C21.8946 12.5196 22 12.2652 22 12C22 11.7348 21.8946 11.4804 21.7071 11.2929L21 12ZM15.2929 16.2929C14.9024 16.6834 14.9024 17.3166 15.2929 17.7071C15.6834 18.0976 16.3166 18.0976 16.7071 17.7071L15.2929 16.2929ZM8 11C7.44772 11 7 11.4477 7 12C7 12.5523 7.44772 13 8 13L8 11ZM2 7L2 17L4 17L4 7L2 7ZM15.2929 7.70711L20.2929 12.7071L21.7071 11.2929L16.7071 6.29289L15.2929 7.70711ZM20.2929 11.2929L15.2929 16.2929L16.7071 17.7071L21.7071 12.7071L20.2929 11.2929ZM21 11L8 11L8 13L21 13L21 11Z" fill="#33425B"/>
</svg>
