<svg width="24" height="24" viewBox="0 0 24 24" fill="none" xmlns="http://www.w3.org/2000/svg">
<path d="M21 6L20 6V6H21ZM21 18L22 18V18H21ZM18 21L18 20H18V21ZM6 21L6 22H6V21ZM3 18L4 18L3 18ZM3 6L2 6L3 6ZM6 3L6 4L6 3ZM18 3L18 2L18 3ZM12.7071 7.29289C12.3166 6.90237 11.6834 6.90237 11.2929 7.29289C10.9024 7.68342 10.9024 8.31658 11.2929 8.70711L12.7071 7.29289ZM16 12L16.7071 12.7071C17.0976 12.3166 17.0976 11.6834 16.7071 11.2929L16 12ZM11.2929 15.2929C10.9024 15.6834 10.9024 16.3166 11.2929 16.7071C11.6834 17.0976 12.3166 17.0976 12.7071 16.7071L11.2929 15.2929ZM8 11C7.44772 11 7 11.4477 7 12C7 12.5523 7.44772 13 8 13V11ZM20 6V18H22V6H20ZM18 20H6V22H18V20ZM4 18L4 6L2 6L2 18L4 18ZM6 4L18 4L18 2L6 2L6 4ZM4 6C4 4.89543 4.89543 4 6 4L6 2C3.79086 2 2 3.79086 2 6L4 6ZM6 20C4.89543 20 4 19.1046 4 18L2 18C2 20.2091 3.79086 22 6 22L6 20ZM20 18C20 19.1046 19.1046 20 18 20L18 22C20.2091 22 22 20.2091 22 18L20 18ZM22 6C22 3.79086 20.2091 2 18 2L18 4C19.1046 4 20 4.89543 20 6L22 6ZM11.2929 8.70711L15.2929 12.7071L16.7071 11.2929L12.7071 7.29289L11.2929 8.70711ZM15.2929 11.2929L11.2929 15.2929L12.7071 16.7071L16.7071 12.7071L15.2929 11.2929ZM16 11H8V13H16V11Z" fill="#33425B"/>
</svg>
