<svg width="24" height="24" viewBox="0 0 24 24" fill="none" xmlns="http://www.w3.org/2000/svg">
<path d="M8.50228 19.6C8.50228 20.4401 8.50228 20.8601 8.66584 21.181C8.80971 21.4632 9.03928 21.6927 9.32164 21.8365C9.64264 22 10.0629 22 10.9033 22H13.1042C13.9446 22 14.3649 22 14.6859 21.8365C14.9682 21.6927 15.1978 21.4632 15.3417 21.181C15.5052 20.8601 15.5052 20.4401 15.5052 19.6V11.5H19.8051C20.3923 11.5 20.6859 11.5 20.8254 11.3827C20.9466 11.2809 21.0124 11.1278 21.0029 10.9699C20.9919 10.788 20.7898 10.5751 20.3856 10.1493L13.7455 3.15464C13.139 2.51578 12.8358 2.19635 12.4825 2.0775C12.1719 1.97303 11.8357 1.97303 11.5252 2.0775C11.1719 2.19635 10.8686 2.51578 10.2621 3.15464L3.62199 10.1493C3.21778 10.5751 3.01567 10.788 3.00471 10.9699C2.99519 11.1278 3.061 11.2809 3.18215 11.3827C3.3217 11.5 3.61532 11.5 4.20255 11.5H8.50228V19.6Z" stroke="#33425B" stroke-width="2" stroke-linecap="round" stroke-linejoin="round"/>
</svg>
