<svg width="24" height="24" viewBox="0 0 24 24" fill="none" xmlns="http://www.w3.org/2000/svg">
<path d="M7 20C6.44772 20 6 20.4477 6 21C6 21.5523 6.44772 22 7 22V20ZM17 22C17.5523 22 18 21.5523 18 21C18 20.4477 17.5523 20 17 20V22ZM7.70711 10.2929C7.31658 9.90237 6.68342 9.90237 6.29289 10.2929C5.90237 10.6834 5.90237 11.3166 6.29289 11.7071L7.70711 10.2929ZM12 16L11.2929 16.7071C11.6834 17.0976 12.3166 17.0976 12.7071 16.7071L12 16ZM17.7071 11.7071C18.0976 11.3166 18.0976 10.6834 17.7071 10.2929C17.3166 9.90237 16.6834 9.90237 16.2929 10.2929L17.7071 11.7071ZM13 3C13 2.44772 12.5523 2 12 2C11.4477 2 11 2.44772 11 3H13ZM7 22H17V20H7V22ZM6.29289 11.7071L11.2929 16.7071L12.7071 15.2929L7.70711 10.2929L6.29289 11.7071ZM12.7071 16.7071L17.7071 11.7071L16.2929 10.2929L11.2929 15.2929L12.7071 16.7071ZM13 16V3H11V16H13Z" fill="#33425B"/>
</svg>
