<svg width="24" height="24" viewBox="0 0 24 24" fill="none" xmlns="http://www.w3.org/2000/svg">
<path d="M8.49848 4.4C8.49848 3.55992 8.49848 3.13988 8.66204 2.81901C8.80591 2.53677 9.03548 2.3073 9.31784 2.16349C9.63884 2 10.0591 2 10.8995 2H13.1004C13.9408 2 14.3611 2 14.6821 2.16349C14.9644 2.3073 15.194 2.53677 15.3379 2.81901C15.5014 3.13988 15.5014 3.55992 15.5014 4.4V12.5H19.8013C20.3885 12.5 20.6821 12.5 20.8216 12.6173C20.9428 12.7191 21.0086 12.8722 20.9991 13.0301C20.9881 13.212 20.786 13.4249 20.3818 13.8507L13.7417 20.8453C13.1352 21.4842 12.832 21.8036 12.4787 21.9225C12.1681 22.0269 11.8319 22.0269 11.5214 21.9225C11.1681 21.8036 10.8648 21.4842 10.2583 20.8453L3.61819 13.8507C3.21398 13.4249 3.01188 13.212 3.00091 13.0301C2.99139 12.8722 3.0572 12.7191 3.17835 12.6173C3.31791 12.5 3.61152 12.5 4.19875 12.5H8.49848V4.4Z" stroke="#33425B" stroke-width="2" stroke-linecap="round" stroke-linejoin="round"/>
</svg>
