<svg width="24" height="24" viewBox="0 0 24 24" fill="none" xmlns="http://www.w3.org/2000/svg">
<path d="M8.70711 11.2929C8.31658 10.9024 7.68342 10.9024 7.29289 11.2929C6.90237 11.6834 6.90237 12.3166 7.29289 12.7071L8.70711 11.2929ZM12 16L11.2929 16.7071C11.6834 17.0976 12.3166 17.0976 12.7071 16.7071L12 16ZM16.7071 12.7071C17.0976 12.3166 17.0976 11.6834 16.7071 11.2929C16.3166 10.9024 15.6834 10.9024 15.2929 11.2929L16.7071 12.7071ZM13 8C13 7.44772 12.5523 7 12 7C11.4477 7 11 7.44772 11 8H13ZM6 4H18V2H6V4ZM20 6V18H22V6H20ZM18 20H6V22H18V20ZM4 18V6H2V18H4ZM6 20C4.89543 20 4 19.1046 4 18H2C2 20.2091 3.79086 22 6 22V20ZM20 18C20 19.1046 19.1046 20 18 20V22C20.2091 22 22 20.2091 22 18H20ZM18 4C19.1046 4 20 4.89543 20 6H22C22 3.79086 20.2091 2 18 2V4ZM6 2C3.79086 2 2 3.79086 2 6H4C4 4.89543 4.89543 4 6 4V2ZM7.29289 12.7071L11.2929 16.7071L12.7071 15.2929L8.70711 11.2929L7.29289 12.7071ZM12.7071 16.7071L16.7071 12.7071L15.2929 11.2929L11.2929 15.2929L12.7071 16.7071ZM13 16V8H11V16H13Z" fill="#33425B"/>
</svg>
