<svg width="24" height="24" viewBox="0 0 24 24" fill="none" xmlns="http://www.w3.org/2000/svg">
<path d="M19.6004 15.5053C20.4405 15.5053 20.8605 15.5053 21.1814 15.3417C21.4636 15.1979 21.6931 14.9683 21.8369 14.6859C22.0004 14.3649 22.0004 13.9447 22.0004 13.1043V10.9034C22.0004 10.0629 22.0004 9.64272 21.8369 9.32172C21.6931 9.03936 21.4636 8.80979 21.1814 8.66592C20.8605 8.50236 20.4405 8.50236 19.6004 8.50236H11.5004V4.20253C11.5004 3.6153 11.5004 3.32169 11.3831 3.18214C11.2813 3.06098 11.1282 2.99517 10.9703 3.00469C10.7884 3.01566 10.5755 3.21776 10.1497 3.62197L3.15507 10.2621C2.51621 10.8686 2.19678 11.1718 2.07793 11.5251C1.97346 11.8357 1.97345 12.1719 2.07792 12.4824C2.19678 12.8357 2.51621 13.139 3.15507 13.7454L10.1497 20.3856C10.5755 20.7898 10.7884 20.9919 10.9703 21.0029C11.1282 21.0124 11.2813 20.9466 11.3831 20.8254C11.5004 20.6859 11.5004 20.3923 11.5004 19.805V15.5053H19.6004Z" stroke="#33425B" stroke-width="2" stroke-linecap="round" stroke-linejoin="round"/>
</svg>
