<svg width="24" height="24" viewBox="0 0 24 24" fill="none" xmlns="http://www.w3.org/2000/svg">
<path d="M7 2C6.44772 2 6 2.44772 6 3C6 3.55228 6.44772 4 7 4V2ZM17 4C17.5523 4 18 3.55228 18 3C18 2.44772 17.5523 2 17 2V4ZM6.29289 12.2929C5.90237 12.6834 5.90237 13.3166 6.29289 13.7071C6.68342 14.0976 7.31658 14.0976 7.70711 13.7071L6.29289 12.2929ZM12 8L12.7071 7.29289C12.3166 6.90237 11.6834 6.90237 11.2929 7.29289L12 8ZM16.2929 13.7071C16.6834 14.0976 17.3166 14.0976 17.7071 13.7071C18.0976 13.3166 18.0976 12.6834 17.7071 12.2929L16.2929 13.7071ZM11 21C11 21.5523 11.4477 22 12 22C12.5523 22 13 21.5523 13 21H11ZM7 4H17V2H7V4ZM7.70711 13.7071L12.7071 8.70711L11.2929 7.29289L6.29289 12.2929L7.70711 13.7071ZM11.2929 8.70711L16.2929 13.7071L17.7071 12.2929L12.7071 7.29289L11.2929 8.70711ZM11 8V21H13V8H11Z" fill="#33425B"/>
</svg>
