<svg width="24" height="24" viewBox="0 0 24 24" fill="none" xmlns="http://www.w3.org/2000/svg">
<path d="M4.39957 15.5053C3.55949 15.5053 3.13945 15.5053 2.81859 15.3417C2.53634 15.1979 2.30687 14.9683 2.16306 14.6859C1.99957 14.3649 1.99957 13.9447 1.99957 13.1043V10.9034C1.99957 10.0629 1.99957 9.64272 2.16306 9.32172C2.30687 9.03936 2.53634 8.80979 2.81859 8.66592C3.13945 8.50236 3.55949 8.50236 4.39957 8.50236H12.4996V4.20253C12.4996 3.6153 12.4996 3.32169 12.6168 3.18214C12.7186 3.06098 12.8717 2.99517 13.0297 3.00469C13.2116 3.01566 13.4244 3.21776 13.8502 3.62197L20.8449 10.2621C21.4838 10.8686 21.8032 11.1718 21.9221 11.5251C22.0265 11.8357 22.0265 12.1719 21.9221 12.4824C21.8032 12.8357 21.4838 13.139 20.8449 13.7454L13.8502 20.3856C13.4244 20.7898 13.2116 20.9919 13.0297 21.0029C12.8717 21.0124 12.7186 20.9466 12.6168 20.8254C12.4996 20.6859 12.4996 20.3923 12.4996 19.805V15.5053H4.39957Z" stroke="#33425B" stroke-width="2" stroke-linecap="round" stroke-linejoin="round"/>
</svg>
