<svg width="24" height="24" viewBox="0 0 24 24" fill="none" xmlns="http://www.w3.org/2000/svg">
<path d="M20 17C20 17.5523 20.4477 18 21 18C21.5523 18 22 17.5523 22 17H20ZM22 7C22 6.44772 21.5523 6 21 6C20.4477 6 20 6.44772 20 7H22ZM7.29289 17.7071C7.68342 18.0976 8.31658 18.0976 8.70711 17.7071C9.09763 17.3166 9.09763 16.6834 8.70711 16.2929L7.29289 17.7071ZM3 12L2.29289 11.2929C1.90237 11.6834 1.90237 12.3166 2.29289 12.7071L3 12ZM8.70711 7.70711C9.09763 7.31658 9.09763 6.68342 8.70711 6.29289C8.31658 5.90237 7.68342 5.90237 7.29289 6.29289L8.70711 7.70711ZM16 13C16.5523 13 17 12.5523 17 12C17 11.4477 16.5523 11 16 11L16 13ZM22 17V7H20V17H22ZM8.70711 16.2929L3.70711 11.2929L2.29289 12.7071L7.29289 17.7071L8.70711 16.2929ZM3.70711 12.7071L8.70711 7.70711L7.29289 6.29289L2.29289 11.2929L3.70711 12.7071ZM3 13L16 13L16 11L3 11L3 13Z" fill="#33425B"/>
</svg>
