<svg width="24" height="24" viewBox="0 0 24 24" fill="none" xmlns="http://www.w3.org/2000/svg">
<path d="M20 17C20 17.5523 20.4477 18 21 18C21.5523 18 22 17.5523 22 17H20ZM22 7C22 6.44772 21.5523 6 21 6C20.4477 6 20 6.44772 20 7H22ZM10.2929 16.2929C9.90237 16.6834 9.90237 17.3166 10.2929 17.7071C10.6834 18.0976 11.3166 18.0976 11.7071 17.7071L10.2929 16.2929ZM16 12L16.7071 12.7071C17.0976 12.3166 17.0976 11.6834 16.7071 11.2929L16 12ZM11.7071 6.29289C11.3166 5.90237 10.6834 5.90237 10.2929 6.29289C9.90237 6.68342 9.90237 7.31658 10.2929 7.70711L11.7071 6.29289ZM3 11C2.44772 11 2 11.4477 2 12C2 12.5523 2.44772 13 3 13L3 11ZM22 17V7H20V17H22ZM11.7071 17.7071L16.7071 12.7071L15.2929 11.2929L10.2929 16.2929L11.7071 17.7071ZM16.7071 11.2929L11.7071 6.29289L10.2929 7.70711L15.2929 12.7071L16.7071 11.2929ZM16 11L3 11L3 13L16 13L16 11Z" fill="#33425B"/>
</svg>
