<svg width="24" height="24" viewBox="0 0 24 24" fill="none" xmlns="http://www.w3.org/2000/svg">
<path d="M6.70711 12.2929C6.31658 11.9024 5.68342 11.9024 5.29289 12.2929C4.90237 12.6834 4.90237 13.3166 5.29289 13.7071L6.70711 12.2929ZM12 19L11.2929 19.7071C11.6834 20.0976 12.3166 20.0976 12.7071 19.7071L12 19ZM18.7071 13.7071C19.0976 13.3166 19.0976 12.6834 18.7071 12.2929C18.3166 11.9024 17.6834 11.9024 17.2929 12.2929L18.7071 13.7071ZM13 5C13 4.44772 12.5523 4 12 4C11.4477 4 11 4.44772 11 5H13ZM5.29289 13.7071L11.2929 19.7071L12.7071 18.2929L6.70711 12.2929L5.29289 13.7071ZM12.7071 19.7071L18.7071 13.7071L17.2929 12.2929L11.2929 18.2929L12.7071 19.7071ZM13 19V5H11V19H13Z" fill="#33425B"/>
</svg>
