<svg width="24" height="24" viewBox="0 0 24 24" fill="none" xmlns="http://www.w3.org/2000/svg">
<path d="M14.2929 15.2929C13.9024 15.6834 13.9024 16.3166 14.2929 16.7071C14.6834 17.0976 15.3166 17.0976 15.7071 16.7071L14.2929 15.2929ZM21 10L21.7071 10.7071C21.8946 10.5196 22 10.2652 22 10C22 9.73478 21.8946 9.48043 21.7071 9.29289L21 10ZM15.7071 3.29289C15.3166 2.90237 14.6834 2.90237 14.2929 3.29289C13.9024 3.68342 13.9024 4.31658 14.2929 4.70711L15.7071 3.29289ZM3 20C3 20.5523 3.44772 21 4 21C4.55228 21 5 20.5523 5 20H3ZM15.7071 16.7071L21.7071 10.7071L20.2929 9.29289L14.2929 15.2929L15.7071 16.7071ZM21.7071 9.29289L15.7071 3.29289L14.2929 4.70711L20.2929 10.7071L21.7071 9.29289ZM10 11H21V9H10V11ZM5 20V16H3V20H5ZM10 9C6.13401 9 3 12.134 3 16H5C5 13.2386 7.23858 11 10 11V9Z" fill="#33425B"/>
</svg>
