<svg width="24" height="24" viewBox="0 0 24 24" fill="none" xmlns="http://www.w3.org/2000/svg">
<path d="M7 2C6.44772 2 6 2.44772 6 3C6 3.55228 6.44772 4 7 4V2ZM17 4C17.5523 4 18 3.55228 18 3C18 2.44772 17.5523 2 17 2V4ZM7.70711 15.2929C7.31658 14.9024 6.68342 14.9024 6.29289 15.2929C5.90237 15.6834 5.90237 16.3166 6.29289 16.7071L7.70711 15.2929ZM12 21L11.2929 21.7071C11.6834 22.0976 12.3166 22.0976 12.7071 21.7071L12 21ZM17.7071 16.7071C18.0976 16.3166 18.0976 15.6834 17.7071 15.2929C17.3166 14.9024 16.6834 14.9024 16.2929 15.2929L17.7071 16.7071ZM13 8C13 7.44772 12.5523 7 12 7C11.4477 7 11 7.44772 11 8H13ZM7 4H17V2H7V4ZM6.29289 16.7071L11.2929 21.7071L12.7071 20.2929L7.70711 15.2929L6.29289 16.7071ZM12.7071 21.7071L17.7071 16.7071L16.2929 15.2929L11.2929 20.2929L12.7071 21.7071ZM13 21V8H11V21H13Z" fill="#33425B"/>
</svg>
