<svg width="24" height="24" viewBox="0 0 24 24" fill="none" xmlns="http://www.w3.org/2000/svg">
<path d="M3 19.3701L6.8394 19.37M6.8394 19.37V15.5315M6.8394 19.37C4.34201 17.6213 3.00451 14.8336 3.00203 12M19.3702 21L19.3701 17.1606M19.3701 17.1606H15.5316M19.3701 17.1606C17.6214 19.658 14.8336 20.9955 12 20.998M21 4.62979L17.1606 4.62987M17.1606 4.62987V8.46837M17.1606 4.62987C19.658 6.37859 20.9955 9.16636 20.998 12M4.62979 3L4.62987 6.8394M4.62987 6.8394H8.46837M4.62987 6.8394C6.37859 4.34197 9.16636 3.00447 12 3.00203" stroke="#33425B" stroke-width="2" stroke-linecap="round" stroke-linejoin="round"/>
</svg>
