<svg width="24" height="24" viewBox="0 0 24 24" fill="none" xmlns="http://www.w3.org/2000/svg">
<path d="M8.70711 14.2929C8.31658 13.9024 7.68342 13.9024 7.29289 14.2929C6.90237 14.6834 6.90237 15.3166 7.29289 15.7071L8.70711 14.2929ZM14 21L13.2929 21.7071C13.6834 22.0976 14.3166 22.0976 14.7071 21.7071L14 21ZM20.7071 15.7071C21.0976 15.3166 21.0976 14.6834 20.7071 14.2929C20.3166 13.9024 19.6834 13.9024 19.2929 14.2929L20.7071 15.7071ZM4 3C3.44772 3 3 3.44772 3 4C3 4.55228 3.44772 5 4 5V3ZM7.29289 15.7071L13.2929 21.7071L14.7071 20.2929L8.70711 14.2929L7.29289 15.7071ZM14.7071 21.7071L20.7071 15.7071L19.2929 14.2929L13.2929 20.2929L14.7071 21.7071ZM13 10V21H15V10H13ZM4 5H8V3H4V5ZM15 10C15 6.13401 11.866 3 8 3V5C10.7614 5 13 7.23858 13 10H15Z" fill="#33425B"/>
</svg>
