<svg width="24" height="24" viewBox="0 0 24 24" fill="none" xmlns="http://www.w3.org/2000/svg">
<path d="M15.2929 9.70711C15.6834 10.0976 16.3166 10.0976 16.7071 9.70711C17.0976 9.31658 17.0976 8.68342 16.7071 8.29289L15.2929 9.70711ZM10 3L10.7071 2.29289C10.3166 1.90237 9.68342 1.90237 9.29289 2.29289L10 3ZM3.29289 8.29289C2.90237 8.68342 2.90237 9.31658 3.29289 9.70711C3.68342 10.0976 4.31658 10.0976 4.70711 9.70711L3.29289 8.29289ZM10 14L9 14L9 14L10 14ZM20 21C20.5523 21 21 20.5523 21 20C21 19.4477 20.5523 19 20 19V21ZM16.7071 8.29289L10.7071 2.29289L9.29289 3.70711L15.2929 9.70711L16.7071 8.29289ZM9.29289 2.29289L3.29289 8.29289L4.70711 9.70711L10.7071 3.70711L9.29289 2.29289ZM11 14V3H9V14H11ZM20 19H16V21H20V19ZM9 14C9 17.866 12.134 21 16 21V19C13.2386 19 11 16.7614 11 14L9 14Z" fill="#33425B"/>
</svg>
