<svg width="24" height="24" viewBox="0 0 24 24" fill="none" xmlns="http://www.w3.org/2000/svg">
<path d="M21 6L22 6L21 6ZM21 18L20 18L21 18ZM18 21L18 22L18 21ZM6 21L6 20L6 21ZM3 18L2 18L3 18ZM3 6L4 6L3 6ZM6 3L6 2L6 3ZM18 3L18 4L18 3ZM12.7071 8.70711C13.0976 8.31658 13.0976 7.68342 12.7071 7.29289C12.3166 6.90237 11.6834 6.90237 11.2929 7.29289L12.7071 8.70711ZM8 12L7.29289 11.2929C6.90237 11.6834 6.90237 12.3166 7.29289 12.7071L8 12ZM11.2929 16.7071C11.6834 17.0976 12.3166 17.0976 12.7071 16.7071C13.0976 16.3166 13.0976 15.6834 12.7071 15.2929L11.2929 16.7071ZM16 13C16.5523 13 17 12.5523 17 12C17 11.4477 16.5523 11 16 11V13ZM20 6V18H22V6H20ZM18 20H6V22H18V20ZM4 18L4 6L2 6L2 18L4 18ZM6 4L18 4L18 2L6 2L6 4ZM4 6C4 4.89543 4.89543 4 6 4L6 2C3.79086 2 2 3.79086 2 6L4 6ZM6 20C4.89543 20 4 19.1046 4 18L2 18C2 20.2091 3.79086 22 6 22L6 20ZM20 18C20 19.1046 19.1046 20 18 20L18 22C20.2091 22 22 20.2091 22 18L20 18ZM22 6C22 3.79086 20.2091 2 18 2L18 4C19.1046 4 20 4.89543 20 6L22 6ZM11.2929 7.29289L7.29289 11.2929L8.70711 12.7071L12.7071 8.70711L11.2929 7.29289ZM7.29289 12.7071L11.2929 16.7071L12.7071 15.2929L8.70711 11.2929L7.29289 12.7071ZM8 13H16V11H8V13Z" fill="#33425B"/>
</svg>
