<svg width="24" height="24" viewBox="0 0 24 24" fill="none" xmlns="http://www.w3.org/2000/svg">
<path d="M7 20C6.44772 20 6 20.4477 6 21C6 21.5523 6.44772 22 7 22V20ZM17 22C17.5523 22 18 21.5523 18 21C18 20.4477 17.5523 20 17 20V22ZM6.29289 7.29289C5.90237 7.68342 5.90237 8.31658 6.29289 8.70711C6.68342 9.09763 7.31658 9.09763 7.70711 8.70711L6.29289 7.29289ZM12 3L12.7071 2.29289C12.3166 1.90237 11.6834 1.90237 11.2929 2.29289L12 3ZM16.2929 8.70711C16.6834 9.09763 17.3166 9.09763 17.7071 8.70711C18.0976 8.31658 18.0976 7.68342 17.7071 7.29289L16.2929 8.70711ZM11 16C11 16.5523 11.4477 17 12 17C12.5523 17 13 16.5523 13 16H11ZM7 22H17V20H7V22ZM7.70711 8.70711L12.7071 3.70711L11.2929 2.29289L6.29289 7.29289L7.70711 8.70711ZM11.2929 3.70711L16.2929 8.70711L17.7071 7.29289L12.7071 2.29289L11.2929 3.70711ZM11 3V16H13V3H11Z" fill="#33425B"/>
</svg>
