<svg width="24" height="24" viewBox="0 0 24 24" fill="none" xmlns="http://www.w3.org/2000/svg">
<path d="M9.70711 8.70711C10.0976 8.31658 10.0976 7.68342 9.70711 7.29289C9.31658 6.90237 8.68342 6.90237 8.29289 7.29289L9.70711 8.70711ZM3 14L2.29289 13.2929C2.10536 13.4804 2 13.7348 2 14C2 14.2652 2.10536 14.5196 2.29289 14.7071L3 14ZM8.29289 20.7071C8.68342 21.0976 9.31658 21.0976 9.70711 20.7071C10.0976 20.3166 10.0976 19.6834 9.70711 19.2929L8.29289 20.7071ZM14 14L14 13L14 13L14 14ZM21 4C21 3.44772 20.5523 3 20 3C19.4477 3 19 3.44772 19 4H21ZM8.29289 7.29289L2.29289 13.2929L3.70711 14.7071L9.70711 8.70711L8.29289 7.29289ZM2.29289 14.7071L8.29289 20.7071L9.70711 19.2929L3.70711 13.2929L2.29289 14.7071ZM14 13L3 13L3 15L14 15L14 13ZM19 4V8H21V4H19ZM14 15C17.866 15 21 11.866 21 8H19C19 10.7614 16.7614 13 14 13V15Z" fill="#33425B"/>
</svg>
