<svg width="24" height="24" viewBox="0 0 24 24" fill="none" xmlns="http://www.w3.org/2000/svg">
<path d="M18 21L18 20L18 20L18 21ZM6 21L6 22L6 22L6 21ZM3 18L4 18L3 18ZM3 6L2 6L3 6ZM6 3L6 4L6 3ZM18 3L18 2L18 3ZM21 6L20 6L20 6L21 6ZM21 18L22 18L22 18L21 18ZM15.2929 14.2071C15.6834 14.5976 16.3166 14.5976 16.7071 14.2071C17.0976 13.8166 17.0976 13.1834 16.7071 12.7929L15.2929 14.2071ZM12 9.5L12.7071 8.79289C12.3166 8.40237 11.6834 8.40237 11.2929 8.79289L12 9.5ZM7.29289 12.7929C6.90237 13.1834 6.90237 13.8166 7.29289 14.2071C7.68342 14.5976 8.31658 14.5976 8.70711 14.2071L7.29289 12.7929ZM18 20L6 20L6 22L18 22L18 20ZM4 18L4 6L2 6L2 18L4 18ZM6 4L18 4L18 2L6 2L6 4ZM20 6L20 18L22 18L22 6L20 6ZM18 4C19.1046 4 20 4.89543 20 6L22 6C22 3.79086 20.2091 2 18 2L18 4ZM4 6C4 4.89543 4.89543 4 6 4L6 2C3.79086 2 2 3.79086 2 6L4 6ZM6 20C4.89543 20 4 19.1046 4 18L2 18C2 20.2091 3.79086 22 6 22L6 20ZM18 22C20.2091 22 22 20.2091 22 18L20 18C20 19.1046 19.1046 20 18 20L18 22ZM16.7071 12.7929L12.7071 8.79289L11.2929 10.2071L15.2929 14.2071L16.7071 12.7929ZM11.2929 8.79289L7.29289 12.7929L8.70711 14.2071L12.7071 10.2071L11.2929 8.79289Z" fill="#33425B"/>
</svg>
