<svg width="24" height="24" viewBox="0 0 24 24" fill="none" xmlns="http://www.w3.org/2000/svg">
<path d="M21 6L20 6L20 6L21 6ZM21 18L22 18L22 18L21 18ZM18 21L18 20L18 20L18 21ZM6 21L6 22L6 22L6 21ZM3 18L4 18L3 18ZM3 6L2 6L3 6ZM6 3L6 4L6 3ZM18 3L18 2L18 3ZM14.2071 8.70711C14.5976 8.31658 14.5976 7.68342 14.2071 7.29289C13.8166 6.90237 13.1834 6.90237 12.7929 7.2929L14.2071 8.70711ZM9.5 12L8.7929 11.2929C8.60536 11.4804 8.5 11.7348 8.5 12C8.5 12.2652 8.60536 12.5196 8.7929 12.7071L9.5 12ZM12.7929 16.7071C13.1834 17.0976 13.8166 17.0976 14.2071 16.7071C14.5976 16.3166 14.5976 15.6834 14.2071 15.2929L12.7929 16.7071ZM20 6L20 18L22 18L22 6L20 6ZM18 20L6 20L6 22L18 22L18 20ZM4 18L4 6L2 6L2 18L4 18ZM6 4L18 4L18 2L6 2L6 4ZM4 6C4 4.89543 4.89543 4 6 4L6 2C3.79086 2 2 3.79086 2 6L4 6ZM6 20C4.89543 20 4 19.1046 4 18L2 18C2 20.2091 3.79086 22 6 22L6 20ZM20 18C20 19.1046 19.1046 20 18 20L18 22C20.2091 22 22 20.2091 22 18L20 18ZM22 6C22 3.79086 20.2091 2 18 2L18 4C19.1046 4 20 4.89543 20 6L22 6ZM12.7929 7.2929L8.7929 11.2929L10.2071 12.7071L14.2071 8.70711L12.7929 7.2929ZM8.7929 12.7071L12.7929 16.7071L14.2071 15.2929L10.2071 11.2929L8.7929 12.7071Z" fill="#33425B"/>
</svg>
