<svg width="24" height="24" viewBox="0 0 24 24" fill="none" xmlns="http://www.w3.org/2000/svg">
<path d="M3 18L2 18L3 18ZM3 6L4 6L3 6ZM6 3L6 2L6 3ZM18 3L18 4L18 3ZM21 6L22 6L22 6L21 6ZM21 18L20 18L20 18L21 18ZM18 21L18 22L18 22L18 21ZM6 21L6 20L6 20L6 21ZM9.79289 15.2929C9.40237 15.6834 9.40237 16.3166 9.79289 16.7071C10.1834 17.0976 10.8166 17.0976 11.2071 16.7071L9.79289 15.2929ZM14.5 12L15.2071 12.7071C15.3946 12.5196 15.5 12.2652 15.5 12C15.5 11.7348 15.3946 11.4804 15.2071 11.2929L14.5 12ZM11.2071 7.29289C10.8166 6.90237 10.1834 6.90237 9.79289 7.29289C9.40237 7.68342 9.40237 8.31658 9.79289 8.70711L11.2071 7.29289ZM4 18L4 6L2 6L2 18L4 18ZM6 4L18 4L18 2L6 2L6 4ZM20 6V18H22V6H20ZM18 20H6V22H18V20ZM20 18C20 19.1046 19.1046 20 18 20L18 22C20.2091 22 22 20.2091 22 18L20 18ZM18 4C19.1046 4 20 4.89543 20 6L22 6C22 3.79086 20.2091 2 18 2L18 4ZM4 6C4 4.89543 4.89543 4 6 4L6 2C3.79086 2 2 3.79086 2 6L4 6ZM2 18C2 20.2091 3.79086 22 6 22L6 20C4.89543 20 4 19.1046 4 18L2 18ZM11.2071 16.7071L15.2071 12.7071L13.7929 11.2929L9.79289 15.2929L11.2071 16.7071ZM15.2071 11.2929L11.2071 7.29289L9.79289 8.70711L13.7929 12.7071L15.2071 11.2929Z" fill="#33425B"/>
</svg>
