<svg width="24" height="24" viewBox="0 0 24 24" fill="none" xmlns="http://www.w3.org/2000/svg">
<path d="M8.70711 9.79289C8.31658 9.40237 7.68342 9.40237 7.29289 9.79289C6.90237 10.1834 6.90237 10.8166 7.29289 11.2071L8.70711 9.79289ZM12 14.5L11.2929 15.2071C11.6834 15.5976 12.3166 15.5976 12.7071 15.2071L12 14.5ZM16.7071 11.2071C17.0976 10.8166 17.0976 10.1834 16.7071 9.79289C16.3166 9.40237 15.6834 9.40237 15.2929 9.79289L16.7071 11.2071ZM6 4H18V2H6V4ZM20 6V18H22V6H20ZM18 20H6V22H18V20ZM4 18V6H2V18H4ZM6 20C4.89543 20 4 19.1046 4 18H2C2 20.2091 3.79086 22 6 22V20ZM20 18C20 19.1046 19.1046 20 18 20V22C20.2091 22 22 20.2091 22 18H20ZM18 4C19.1046 4 20 4.89543 20 6H22C22 3.79086 20.2091 2 18 2V4ZM6 2C3.79086 2 2 3.79086 2 6H4C4 4.89543 4.89543 4 6 4V2ZM7.29289 11.2071L11.2929 15.2071L12.7071 13.7929L8.70711 9.79289L7.29289 11.2071ZM12.7071 15.2071L16.7071 11.2071L15.2929 9.79289L11.2929 13.7929L12.7071 15.2071Z" fill="#33425B"/>
</svg>
