<svg width="24" height="24" viewBox="0 0 24 24" fill="none" xmlns="http://www.w3.org/2000/svg">
<path d="M17.2929 15.2929C16.9024 15.6834 16.9024 16.3166 17.2929 16.7071C17.6834 17.0976 18.3166 17.0976 18.7071 16.7071L17.2929 15.2929ZM22 12L22.7071 12.7071C23.0976 12.3166 23.0976 11.6834 22.7071 11.2929L22 12ZM18.7071 7.29289C18.3166 6.90237 17.6834 6.90237 17.2929 7.29289C16.9024 7.68342 16.9024 8.31658 17.2929 8.70711L18.7071 7.29289ZM6.70711 8.70711C7.09763 8.31658 7.09763 7.68342 6.70711 7.29289C6.31658 6.90237 5.68342 6.90237 5.29289 7.29289L6.70711 8.70711ZM2 12L1.29289 11.2929C0.902369 11.6834 0.902369 12.3166 1.29289 12.7071L2 12ZM5.29289 16.7071C5.68342 17.0976 6.31658 17.0976 6.70711 16.7071C7.09763 16.3166 7.09763 15.6834 6.70711 15.2929L5.29289 16.7071ZM18.7071 16.7071L22.7071 12.7071L21.2929 11.2929L17.2929 15.2929L18.7071 16.7071ZM22.7071 11.2929L18.7071 7.29289L17.2929 8.70711L21.2929 12.7071L22.7071 11.2929ZM5.29289 7.29289L1.29289 11.2929L2.70711 12.7071L6.70711 8.70711L5.29289 7.29289ZM1.29289 12.7071L5.29289 16.7071L6.70711 15.2929L2.70711 11.2929L1.29289 12.7071ZM22 11H2V13H22V11Z" fill="#33425B"/>
</svg>
