<svg width="24" height="24" viewBox="0 0 24 24" fill="none" xmlns="http://www.w3.org/2000/svg">
<path d="M15.2929 6.70711C15.6834 7.09763 16.3166 7.09763 16.7071 6.70711C17.0976 6.31658 17.0976 5.68342 16.7071 5.29289L15.2929 6.70711ZM12 2L12.7071 1.29289C12.3166 0.902369 11.6834 0.902369 11.2929 1.29289L12 2ZM7.29289 5.29289C6.90237 5.68342 6.90237 6.31658 7.29289 6.70711C7.68342 7.09763 8.31658 7.09763 8.70711 6.70711L7.29289 5.29289ZM8.70711 17.2929C8.31658 16.9024 7.68342 16.9024 7.29289 17.2929C6.90237 17.6834 6.90237 18.3166 7.29289 18.7071L8.70711 17.2929ZM12 22L11.2929 22.7071C11.6834 23.0976 12.3166 23.0976 12.7071 22.7071L12 22ZM16.7071 18.7071C17.0976 18.3166 17.0976 17.6834 16.7071 17.2929C16.3166 16.9024 15.6834 16.9024 15.2929 17.2929L16.7071 18.7071ZM16.7071 5.29289L12.7071 1.29289L11.2929 2.70711L15.2929 6.70711L16.7071 5.29289ZM11.2929 1.29289L7.29289 5.29289L8.70711 6.70711L12.7071 2.70711L11.2929 1.29289ZM7.29289 18.7071L11.2929 22.7071L12.7071 21.2929L8.70711 17.2929L7.29289 18.7071ZM12.7071 22.7071L16.7071 18.7071L15.2929 17.2929L11.2929 21.2929L12.7071 22.7071ZM11 2L11 22L13 22L13 2L11 2Z" fill="#33425B"/>
</svg>
