<svg width="24" height="24" viewBox="0 0 24 24" fill="none" xmlns="http://www.w3.org/2000/svg">
<path d="M8 3H6C4.34315 3 3 4.34315 3 6V8M3 16V18C3 19.6569 4.34315 21 6 21H8M21 8V6C21 4.34315 19.6569 3 18 3H16M16 21H18C19.6569 21 21 19.6569 21 18V16M12 8V12M12 16V16.01M12.25 16C12.25 16.1381 12.1381 16.25 12 16.25C11.8619 16.25 11.75 16.1381 11.75 16C11.75 15.8619 11.8619 15.75 12 15.75C12.1381 15.75 12.25 15.8619 12.25 16Z" stroke="#33425B" stroke-width="2" stroke-linecap="round" stroke-linejoin="round"/>
</svg>
