<svg width="24" height="24" viewBox="0 0 24 24" fill="none" xmlns="http://www.w3.org/2000/svg">
<path d="M12 7.99997V12M12 16V16.01M5.89679 4.49159L2.40679 10.4916C1.86441 11.424 1.86441 12.5759 2.40679 13.5084L5.89679 19.5084C6.43394 20.4318 7.42167 21 8.49 21H15.5088C16.5771 21 17.5649 20.4318 18.102 19.5084L21.592 13.5084C22.1344 12.5759 22.1344 11.424 21.592 10.4916L18.102 4.49159C17.5649 3.56811 16.5771 2.99997 15.5088 2.99997L8.49 2.99997C7.42167 2.99997 6.43394 3.56811 5.89679 4.49159ZM12.25 16C12.25 16.138 12.1381 16.25 12 16.25C11.8619 16.25 11.75 16.138 11.75 16C11.75 15.8619 11.8619 15.75 12 15.75C12.1381 15.75 12.25 15.8619 12.25 16Z" stroke="#33425B" stroke-width="2" stroke-linecap="round" stroke-linejoin="round"/>
</svg>
