<svg width="24" height="24" viewBox="0 0 24 24" fill="none" xmlns="http://www.w3.org/2000/svg">
<path d="M12 8V12M12 16V16.01M12.25 16C12.25 16.1381 12.1381 16.25 12 16.25C11.8619 16.25 11.75 16.1381 11.75 16C11.75 15.8619 11.8619 15.75 12 15.75C12.1381 15.75 12.25 15.8619 12.25 16ZM2 9.16591V14.8341C2 15.6716 2.33271 16.4748 2.92493 17.0671L6.93294 21.0751C7.52516 21.6673 8.32838 22 9.16591 22H14.8341C15.6716 22 16.4748 21.6673 17.0671 21.0751L21.0751 17.0671C21.6673 16.4748 22 15.6716 22 14.8341V9.16591C22 8.32838 21.6673 7.52516 21.0751 6.93294L17.0671 2.92493C16.4748 2.33271 15.6716 2 14.8341 2H9.16591C8.32838 2 7.52516 2.33271 6.93294 2.92493L2.92493 6.93294C2.33271 7.52516 2 8.32838 2 9.16591Z" stroke="#33425B" stroke-width="2" stroke-linecap="round" stroke-linejoin="round"/>
</svg>
