<svg width="24" height="24" viewBox="0 0 24 24" fill="none" xmlns="http://www.w3.org/2000/svg">
<path d="M12 7.99997V12M12 16V16.01M9.88024 2.878L2.87803 9.88021C1.70732 11.0509 1.70732 12.949 2.87803 14.1197L9.88024 21.1219C11.051 22.2926 12.949 22.2926 14.1198 21.1219L21.122 14.1197C22.2927 12.949 22.2927 11.0509 21.122 9.88021L14.1198 2.878C12.949 1.70729 11.051 1.70729 9.88024 2.878ZM12.25 16C12.25 16.138 12.1381 16.25 12 16.25C11.8619 16.25 11.75 16.138 11.75 16C11.75 15.8619 11.8619 15.75 12 15.75C12.1381 15.75 12.25 15.8619 12.25 16Z" stroke="#33425B" stroke-width="2" stroke-linecap="round" stroke-linejoin="round"/>
</svg>
