<svg width="24" height="24" viewBox="0 0 24 24" fill="none" xmlns="http://www.w3.org/2000/svg">
<path d="M11 18H13M21 11C21 16.5 14.9706 22 12 22C9.02944 22 3 16.5 3 11C3 6.02944 7.02944 2 12 2C16.9706 2 21 6.02944 21 11ZM6.58329 10.0834C7.29072 9.98247 8.60184 9.82928 9.38619 10.6136C10.1705 11.398 10.0176 12.7094 9.91664 13.4164C9.20966 13.5174 7.89811 13.6704 7.11376 12.8861C6.32941 12.1017 6.48244 10.7905 6.58329 10.0834ZM17.4167 10.0834C16.7093 9.98247 15.3982 9.82928 14.6138 10.6136C13.8295 11.398 13.9824 12.7094 14.0834 13.4164C14.7903 13.5174 16.1019 13.6704 16.8862 12.8861C17.6706 12.1017 17.5176 10.7905 17.4167 10.0834Z" stroke="#33425B" stroke-width="2" stroke-linecap="round" stroke-linejoin="round"/>
</svg>
