<svg width="24" height="24" viewBox="0 0 24 24" fill="none" xmlns="http://www.w3.org/2000/svg">
<path d="M14 22H10M2 6C2.5 4.28007 3.5 3 4.49998 2M22 6C21.4999 4.28007 20.5 3 19.5002 2M10.125 8H13.6858C13.8363 8 13.9255 8.16845 13.8408 8.29293L10.1592 13.7071C10.0746 13.8315 10.1637 14 10.3143 14H13.875M18.9986 18H5.00141C3.6751 18 3.00139 16.405 3.92609 15.4542L4.15062 15.2233C4.69526 14.6633 4.99997 13.9129 4.99997 13.1318V9.5C4.99997 5.634 8.13398 2.5 12 2.5C15.866 2.5 19 5.63401 19 9.5V13.1317C19 13.9129 19.3047 14.6633 19.8494 15.2234L20.0739 15.4542C20.9987 16.405 20.325 18 18.9986 18Z" stroke="#33425B" stroke-width="2" stroke-linecap="round" stroke-linejoin="round"/>
</svg>
