<svg width="24" height="24" viewBox="0 0 24 24" fill="none" xmlns="http://www.w3.org/2000/svg">
<path d="M14 22H10M4.5 2L6.69748 4.19748M6.69748 4.19748C5.3407 5.55465 4.50156 7.42933 4.50156 9.5V13.1318C4.50156 13.9129 4.19684 14.6633 3.6522 15.2233L3.42767 15.4542C2.50297 16.405 3.17668 18 4.503 18H19.5002C19.798 18 20.0629 17.9196 20.2841 17.7841M6.69748 4.19748L20.2841 17.7841M20.2841 17.7841L22 19.5M10.3392 2.18486C10.8739 2.06387 11.4303 2 12.0016 2C16.1437 2 19.5016 5.35787 19.5016 9.5V11.3472" stroke="#33425B" stroke-width="2" stroke-linecap="round" stroke-linejoin="round"/>
</svg>
