<svg width="24" height="24" viewBox="0 0 24 24" fill="none" xmlns="http://www.w3.org/2000/svg">
<path d="M14 22H10M2 6C2.5 4.28007 3.5 3 4.49998 2M22 6C21.4999 4.28007 20.5 3 19.5002 2M18.9986 18H5.0014C3.67509 18 3.00138 16.405 3.92608 15.4542L4.15061 15.2233C4.69525 14.6633 4.99996 13.9129 4.99996 13.1318V9.5C4.99996 5.634 8.13397 2.5 12 2.5C15.866 2.5 19 5.63401 19 9.5V13.1317C19 13.9129 19.3047 14.6633 19.8494 15.2234L20.0739 15.4542C20.9986 16.405 20.3249 18 18.9986 18Z" stroke="#33425B" stroke-width="2" stroke-linecap="round" stroke-linejoin="round"/>
</svg>
