<svg width="24" height="24" viewBox="0 0 24 24" fill="none" xmlns="http://www.w3.org/2000/svg">
<path d="M10.7652 2.60867C11.166 2.53736 11.5785 2.50016 11.9997 2.50016C15.8657 2.50016 18.9997 5.63416 18.9997 9.50015V10.8439M7.04994 4.55045L4.49964 2.00016C3.49966 3.00016 2.5 4.28007 2 6M7.04994 4.55045C5.78321 5.8172 4.99973 7.56718 4.99973 9.50015V13.1319C4.99973 13.9131 4.69502 14.6635 4.15038 15.2235L3.92585 15.4544C3.00115 16.4052 3.67486 18.0002 5.00117 18.0002H18.9984C19.4346 18.0002 19.8003 17.8276 20.0617 17.5622M7.04994 4.55045L20.0617 17.5622M20.0617 17.5622L21.9996 19.5002M22 6C21.4999 4.28007 20.5 3 19.5002 2M14 22H10" stroke="#33425B" stroke-width="2" stroke-linecap="round" stroke-linejoin="round"/>
</svg>
