<svg width="24" height="24" viewBox="0 0 24 24" fill="none" xmlns="http://www.w3.org/2000/svg">
<path d="M14 22H10M12 6V10M12 14V14.01M19.5016 9.5V13.1317C19.5016 13.9129 19.8063 14.6633 20.351 15.2234L20.5755 15.4542C21.5002 16.405 20.8265 18 19.5002 18H4.503C3.17668 18 2.50297 16.405 3.42767 15.4542L3.6522 15.2233C4.19684 14.6633 4.50156 13.9129 4.50156 13.1318V9.5C4.50156 5.35787 7.85942 2 12.0016 2C16.1437 2 19.5016 5.35787 19.5016 9.5ZM12.25 14C12.25 14.1381 12.1381 14.25 12 14.25C11.8619 14.25 11.75 14.1381 11.75 14C11.75 13.8619 11.8619 13.75 12 13.75C12.1381 13.75 12.25 13.8619 12.25 14Z" stroke="#33425B" stroke-width="2" stroke-linecap="round" stroke-linejoin="round"/>
</svg>
