<svg width="24" height="24" viewBox="0 0 24 24" fill="none" xmlns="http://www.w3.org/2000/svg">
<path d="M3 20C2.44772 20 2 20.4477 2 21C2 21.5523 2.44772 22 3 22V20ZM21 22C21.5523 22 22 21.5523 22 21C22 20.4477 21.5523 20 21 20V22ZM7.70711 9.29289C7.31658 8.90237 6.68342 8.90237 6.29289 9.29289C5.90237 9.68342 5.90237 10.3166 6.29289 10.7071L7.70711 9.29289ZM12 15L11.2929 15.7071C11.6834 16.0976 12.3166 16.0976 12.7071 15.7071L12 15ZM17.7071 10.7071C18.0976 10.3166 18.0976 9.68342 17.7071 9.29289C17.3166 8.90237 16.6834 8.90237 16.2929 9.29289L17.7071 10.7071ZM13 5C13 4.44772 12.5523 4 12 4C11.4477 4 11 4.44772 11 5H13ZM3 22H21V20H3V22ZM6.29289 10.7071L11.2929 15.7071L12.7071 14.2929L7.70711 9.29289L6.29289 10.7071ZM12.7071 15.7071L17.7071 10.7071L16.2929 9.29289L11.2929 14.2929L12.7071 15.7071ZM13 15V5H11V15H13Z" fill="#33425B"/>
</svg>
