<svg width="24" height="24" viewBox="0 0 24 24" fill="none" xmlns="http://www.w3.org/2000/svg">
<path d="M11.5 7.5C11.5 7.77614 11.7239 8 12 8C12.2761 8 12.5 7.77614 12.5 7.5M11.5 7.5C11.5 7.22386 11.7239 7 12 7C12.2761 7 12.5 7.22386 12.5 7.5M11.5 7.5H12.5M11.5 16.4999C11.5 16.776 11.7239 16.9999 12 16.9999C12.2761 16.9999 12.5 16.776 12.5 16.4999M11.5 16.4999C11.5 16.2237 11.7239 15.9999 12 15.9999C12.2761 15.9999 12.5 16.2237 12.5 16.4999M11.5 16.4999H12.5M11.5 11.9999C11.5 12.276 11.7239 12.4999 12 12.4999C12.2761 12.4999 12.5 12.276 12.5 11.9999M11.5 11.9999C11.5 11.7237 11.7239 11.4999 12 11.4999C12.2761 11.4999 12.5 11.7237 12.5 11.9999M11.5 11.9999H12.5M22 12C22 17.5228 17.5228 22 12 22C6.47715 22 2 17.5228 2 12C2 6.47715 6.47715 2 12 2C17.5228 2 22 6.47715 22 12Z" stroke="#33425B" stroke-width="2" stroke-linecap="round" stroke-linejoin="round"/>
</svg>
