<svg width="24" height="24" viewBox="0 0 24 24" fill="none" xmlns="http://www.w3.org/2000/svg">
<path d="M13 5C13 5.55228 12.5523 6 12 6C11.4477 6 11 5.55228 11 5M13 5C13 4.44772 12.5523 4 12 4C11.4477 4 11 4.44772 11 5M13 5H11M13 12C13 12.5523 12.5523 13 12 13C11.4477 13 11 12.5523 11 12M13 12C13 11.4477 12.5523 11 12 11C11.4477 11 11 11.4477 11 12M13 12H11M13 19C13 19.5523 12.5523 20 12 20C11.4477 20 11 19.5523 11 19M13 19C13 18.4477 12.5523 18 12 18C11.4477 18 11 18.4477 11 19M13 19H11" stroke="#33425B" stroke-width="2" stroke-linecap="round" stroke-linejoin="round"/>
</svg>
