<svg width="24" height="24" viewBox="0 0 24 24" fill="none" xmlns="http://www.w3.org/2000/svg">
<path d="M9 4C9.55228 4 10 3.55229 10 3C10 2.44772 9.55228 2 9 2V4ZM22 15C22 14.4477 21.5523 14 21 14C20.4477 14 20 14.4477 20 15H22ZM20 8.50058C20.0003 9.05286 20.4483 9.50032 21.0006 9.5C21.5529 9.49969 22.0003 9.05172 22 8.49943L20 8.50058ZM20.9969 2.99686L21.9969 2.99629C21.9965 2.44423 21.5489 1.99686 20.9969 1.99686L20.9969 2.99686ZM15.5 1.99686C14.9477 1.99686 14.5 2.44457 14.5 2.99686C14.5 3.54914 14.9477 3.99686 15.5 3.99686L15.5 1.99686ZM10.2927 12.2931C9.90227 12.6838 9.90247 13.317 10.2931 13.7074C10.6838 14.0978 11.3169 14.0976 11.7073 13.7069L10.2927 12.2931ZM18 20H6V22H18V20ZM4 18V6H2V18H4ZM6 4H9V2H6V4ZM20 15V18H22V15H20ZM6 20C4.89543 20 4 19.1046 4 18H2C2 20.2091 3.79086 22 6 22V20ZM18 22C20.2091 22 22 20.2091 22 18H20C20 19.1046 19.1046 20 18 20V22ZM4 6C4 4.89543 4.89543 4 6 4V2C3.79086 2 2 3.79086 2 6H4ZM22 8.49943L21.9969 2.99629L19.9969 2.99743L20 8.50058L22 8.49943ZM20.9969 1.99686L15.5 1.99686L15.5 3.99686L20.9969 3.99686L20.9969 1.99686ZM11.7073 13.7069L21.7042 3.70374L20.2895 2.28998L10.2927 12.2931L11.7073 13.7069Z" fill="#33425B"/>
</svg>
