<svg width="24" height="24" viewBox="0 0 24 24" fill="none" xmlns="http://www.w3.org/2000/svg">
<path d="M3 8V6C3 5.17157 3.33579 4.42157 3.87868 3.87868M16 21H18C18.8284 21 19.5784 20.6642 20.1213 20.1213M3 16V18C3 19.6569 4.34315 21 6 21H8M21 8V6C21 4.34315 19.6569 3 18 3H16M2 2L3.87868 3.87868M3.87868 3.87868L8.22427 8.22427M8.22427 8.22427C6.70755 9.33675 5.89159 10.9096 5.57974 11.6226C5.47307 11.8665 5.47307 12.1335 5.57974 12.3774C6.08905 13.5418 7.94304 17 11.9983 17C13.5714 17 14.8136 16.4796 15.7746 15.7746M8.22427 8.22427L10.5857 10.5857M10.5857 10.5857C10.2238 10.9477 9.99991 11.4477 9.99991 12C9.99991 13.1046 10.8953 14 11.9999 14C12.5522 14 13.0522 13.7761 13.4142 13.4142M10.5857 10.5857L13.4142 13.4142M13.4142 13.4142L15.7746 15.7746M15.7746 15.7746L20.1213 20.1213M20.1213 20.1213L22 22M12.6947 7.03507C16.2677 7.40081 17.9393 10.5259 18.4195 11.622C18.5265 11.8662 18.5265 12.1338 18.4195 12.378C18.3855 12.4556 18.3455 12.5434 18.2993 12.6397" stroke="#33425B" stroke-width="2" stroke-linecap="round" stroke-linejoin="round"/>
</svg>
