<svg width="24" height="24" viewBox="0 0 24 24" fill="none" xmlns="http://www.w3.org/2000/svg">
<path d="M3 3L6.06024 6.06024M6.06024 6.06024C3.81046 7.83317 2.59307 10.2769 2.12233 11.3961C1.95821 11.7863 1.95821 12.2137 2.12233 12.6039C2.90591 14.4669 5.75834 20 11.9975 20C14.4897 20 16.442 19.1172 17.9381 17.9381M6.06024 6.06024L9.17157 9.17157M9.88612 4.22518C10.5422 4.08044 11.2453 4 11.9975 4C18.2356 4 21.0915 9.53122 21.8767 11.3952C22.0414 11.786 22.0414 12.214 21.8767 12.6048C21.6466 13.1512 21.2385 14.0125 20.6196 14.9574M17.9381 17.9381L21 21M17.9381 17.9381L14.8284 14.8284M9.17157 9.17157C8.44771 9.89543 8 10.8954 8 12C8 14.2091 9.79086 16 12 16C13.1046 16 14.1046 15.5523 14.8284 14.8284M9.17157 9.17157L14.8284 14.8284" stroke="#33425B" stroke-width="2" stroke-linecap="round" stroke-linejoin="round"/>
</svg>
