<svg width="24" height="24" viewBox="0 0 24 24" fill="none" xmlns="http://www.w3.org/2000/svg">
<path d="M8 3H6C4.34315 3 3 4.34315 3 6V8M16 21H18C19.6569 21 21 19.6569 21 18V16M3 16V18C3 19.6569 4.34315 21 6 21H8M21 8V6C21 4.34315 19.6569 3 18 3H16M11.9983 17C16.0529 17 17.9091 13.543 18.4195 12.378C18.5265 12.1338 18.5265 11.8662 18.4195 11.622C17.9091 10.457 16.0529 7 11.9983 7C7.94304 7 6.08905 10.4582 5.57974 11.6226C5.47307 11.8665 5.47307 12.1335 5.57974 12.3774C6.08905 13.5418 7.94304 17 11.9983 17ZM13.9999 12C13.9999 13.1046 13.1045 14 11.9999 14C10.8953 14 9.99991 13.1046 9.99991 12C9.99991 10.8954 10.8953 10 11.9999 10C13.1045 10 13.9999 10.8954 13.9999 12Z" stroke="#33425B" stroke-width="2" stroke-linecap="round" stroke-linejoin="round"/>
</svg>
