<svg width="24" height="24" viewBox="0 0 24 24" fill="none" xmlns="http://www.w3.org/2000/svg">
<path d="M21.8767 11.3952C22.0414 11.786 22.0414 12.214 21.8767 12.6048C21.0915 14.4688 18.2356 20 11.9975 20C5.75835 20 2.90592 14.4669 2.12233 12.6039C1.95822 12.2137 1.95822 11.7863 2.12233 11.3961C2.90592 9.53313 5.75835 4 11.9975 4C18.2356 4 21.0915 9.53122 21.8767 11.3952Z" stroke="#33425B" stroke-width="2" stroke-linecap="round" stroke-linejoin="round"/>
<path d="M16 12C16 14.2091 14.2091 16 12 16C9.79087 16 8.00001 14.2091 8.00001 12C8.00001 9.79086 9.79087 8 12 8C14.2091 8 16 9.79086 16 12Z" stroke="#33425B" stroke-width="2" stroke-linecap="round" stroke-linejoin="round"/>
</svg>
