<svg width="24" height="24" viewBox="0 0 24 24" fill="none" xmlns="http://www.w3.org/2000/svg">
<path d="M21 10.5C21 9.55572 20.5554 8.66656 19.8 8.09999L13.8 3.6C12.7333 2.8 11.2667 2.8 10.2 3.6L4.2 8.09999C3.44458 8.66655 3 9.55572 3 10.5V18C3 19.6568 4.34315 21 6 21H18C19.6569 21 21 19.6568 21 18V10.5Z" stroke="#33425B" stroke-width="2" stroke-linecap="round" stroke-linejoin="round"/>
<path d="M11.7782 9.13547C11.8689 8.95483 12.1311 8.95483 12.2218 9.13547L13.3238 11.3296L15.788 11.6814C15.9908 11.7104 16.0718 11.9553 15.925 12.0959L14.142 13.8038L14.5629 16.2153C14.5975 16.4139 14.3855 16.5653 14.204 16.4715L12 15.333L9.79599 16.4715C9.61454 16.5653 9.40246 16.4139 9.43712 16.2153L9.85804 13.8038L8.07496 12.0959C7.92816 11.9553 8.00917 11.7104 8.21204 11.6814L10.6762 11.3296L11.7782 9.13547Z" stroke="#33425B" stroke-width="2" stroke-linecap="round" stroke-linejoin="round"/>
</svg>
