<svg width="24" height="24" viewBox="0 0 24 24" fill="none" xmlns="http://www.w3.org/2000/svg">
<path d="M21 10.5C21 9.55572 20.5554 8.66656 19.8 8.09999L13.8 3.6C12.7333 2.8 11.2667 2.8 10.2 3.6L4.2 8.09999C3.44458 8.66655 3 9.55572 3 10.5V18C3 19.6568 4.34315 21 6 21H18C19.6569 21 21 19.6568 21 18V10.5Z" stroke="#33425B" stroke-width="2" stroke-linecap="round" stroke-linejoin="round"/>
<path d="M15 14C15 15.6568 13.6569 17 12 17C10.3431 17 9 15.6568 9 14C9 12.3431 10.3431 11 12 11C13.6569 11 15 12.3431 15 14Z" stroke="#33425B" stroke-width="2" stroke-linecap="round" stroke-linejoin="round"/>
</svg>
