<svg width="24" height="24" viewBox="0 0 24 24" fill="none" xmlns="http://www.w3.org/2000/svg">
<path d="M11.998 11.4207L11.9985 11.4195M11.9985 11.4195C12.1989 11.0046 12.6918 9.99999 13.9577 9.99999C15.0412 9.99999 16.0374 11.1263 15.9974 12.3527C15.9704 13.264 15.3575 14.0095 14.6376 14.7137C13.6724 15.6577 12.7854 16.4664 12.3265 16.8784C12.1398 17.0461 11.8584 17.0462 11.6716 16.8786C11.2125 16.4666 10.3248 15.6579 9.35951 14.7137C8.63961 14.0095 8.02672 13.264 7.9997 12.3527C7.95971 11.1263 8.95586 9.99999 10.0394 9.99999C11.3053 9.99999 11.7982 11.0046 11.9985 11.4195ZM11.9985 11.4195L11.9991 11.4207M18 21H6C4.34315 21 3 19.6568 3 18V10.5C3 9.55572 3.44458 8.66655 4.2 8.09999L10.2 3.6C11.2667 2.8 12.7333 2.8 13.8 3.6L19.8 8.09999C20.5554 8.66656 21 9.55572 21 10.5V18C21 19.6568 19.6569 21 18 21Z" stroke="#33425B" stroke-width="2" stroke-linecap="round" stroke-linejoin="round"/>
</svg>
