<svg width="24" height="24" viewBox="0 0 24 24" fill="none" xmlns="http://www.w3.org/2000/svg">
<path d="M19.8 8.09999L13.8 3.6C12.7333 2.8 11.2667 2.8 10.2 3.6L4.2 8.09999C3.44458 8.66655 3 9.55572 3 10.5V18C3 19.6568 4.34314 21 5.99999 21L8.5 21C8.77614 21 9 20.7761 9 20.5V16C9 14.3431 10.3431 13 12 13C13.6569 13 15 14.3431 15 16V20.5C15 20.7761 15.2239 21 15.5 21L18 21C19.6569 21 21 19.6568 21 18V10.5C21 9.55572 20.5554 8.66656 19.8 8.09999Z" stroke="#33425B" stroke-width="2" stroke-linecap="round" stroke-linejoin="round"/>
</svg>
