<svg width="24" height="24" viewBox="0 0 24 24" fill="none" xmlns="http://www.w3.org/2000/svg">
<path d="M4.32009 13.313L3.61298 12.6059L3.61298 12.6059L4.32009 13.313ZM7.01318 12.0341C7.4037 11.6436 7.4037 11.0104 7.01318 10.6199C6.62265 10.2294 5.98949 10.2294 5.59897 10.6199L7.01318 12.0341ZM13.3809 18.401C13.7714 18.0105 13.7714 17.3773 13.3809 16.9868C12.9904 16.5963 12.3572 16.5963 11.9667 16.9868L13.3809 18.401ZM10.6874 19.6803L11.3945 20.3874L11.3945 20.3874L10.6874 19.6803ZM19.68 10.6877L18.9729 9.98062L18.9729 9.98062L19.68 10.6877ZM16.9868 11.9668C16.5962 12.3573 16.5962 12.9904 16.9868 13.381C17.3773 13.7715 18.0104 13.7715 18.401 13.381L16.9868 11.9668ZM10.6198 5.59902C10.2293 5.98955 10.2293 6.62271 10.6198 7.01324C11.0103 7.40376 11.6435 7.40376 12.034 7.01324L10.6198 5.59902ZM13.3127 4.32039L14.0198 5.02749L14.0198 5.02749L13.3127 4.32039ZM4.32009 19.6803L3.61298 20.3874L3.61298 20.3874L4.32009 19.6803ZM19.68 4.32039L20.3871 3.61328L20.3871 3.61328L19.68 4.32039ZM15.7071 9.70701C16.0976 9.31649 16.0976 8.68332 15.7071 8.2928C15.3166 7.90228 14.6834 7.90228 14.2929 8.2928L15.7071 9.70701ZM8.29289 14.2928C7.90237 14.6833 7.90237 15.3165 8.29289 15.707C8.68342 16.0975 9.31658 16.0975 9.70711 15.707L8.29289 14.2928ZM9.5 2C9.5 1.44772 9.05228 1 8.5 1C7.94772 1 7.5 1.44772 7.5 2H9.5ZM7.5 4C7.5 4.55228 7.94772 5 8.5 5C9.05228 5 9.5 4.55228 9.5 4H7.5ZM2 7.5C1.44772 7.5 1 7.94772 1 8.5C1 9.05228 1.44772 9.5 2 9.5V7.5ZM4 9.5C4.55228 9.5 5 9.05228 5 8.5C5 7.94772 4.55228 7.5 4 7.5V9.5ZM4.29289 5.70711C4.68342 6.09763 5.31658 6.09763 5.70711 5.70711C6.09763 5.31658 6.09763 4.68342 5.70711 4.29289L4.29289 5.70711ZM4.30711 2.89289C3.91658 2.50237 3.28342 2.50237 2.89289 2.89289C2.50237 3.28342 2.50237 3.91658 2.89289 4.30711L4.30711 2.89289ZM14.5 22C14.5 22.5523 14.9477 23 15.5 23C16.0523 23 16.5 22.5523 16.5 22H14.5ZM16.5 20C16.5 19.4477 16.0523 19 15.5 19C14.9477 19 14.5 19.4477 14.5 20H16.5ZM22 16.5C22.5523 16.5 23 16.0523 23 15.5C23 14.9477 22.5523 14.5 22 14.5V16.5ZM20 14.5C19.4477 14.5 19 14.9477 19 15.5C19 16.0523 19.4477 16.5 20 16.5V14.5ZM19.7071 18.2929C19.3166 17.9024 18.6834 17.9024 18.2929 18.2929C17.9024 18.6834 17.9024 19.3166 18.2929 19.7071L19.7071 18.2929ZM19.6929 21.1071C20.0834 21.4976 20.7166 21.4976 21.1071 21.1071C21.4976 20.7166 21.4976 20.0834 21.1071 19.6929L19.6929 21.1071ZM5.0272 14.0201L7.01318 12.0341L5.59897 10.6199L3.61298 12.6059L5.0272 14.0201ZM11.9667 16.9868L9.98032 18.9732L11.3945 20.3874L13.3809 18.401L11.9667 16.9868ZM18.9729 9.98062L16.9868 11.9668L18.401 13.381L20.3871 11.3948L18.9729 9.98062ZM12.034 7.01324L14.0198 5.02749L12.6056 3.61328L10.6198 5.59902L12.034 7.01324ZM5.0272 18.9732C3.65943 17.6054 3.65943 15.3878 5.0272 14.0201L3.61298 12.6059C1.46417 14.7547 1.46417 18.2386 3.61298 20.3874L5.0272 18.9732ZM3.61298 20.3874C5.7618 22.5362 9.24572 22.5362 11.3945 20.3874L9.98032 18.9732C8.61255 20.341 6.39496 20.341 5.0272 18.9732L3.61298 20.3874ZM18.9729 5.02749C20.3407 6.39526 20.3407 8.61285 18.9729 9.98062L20.3871 11.3948C22.5359 9.24601 22.5359 5.7621 20.3871 3.61328L18.9729 5.02749ZM20.3871 3.61328C18.2383 1.46447 14.7544 1.46446 12.6056 3.61328L14.0198 5.02749C15.3875 3.65973 17.6051 3.65973 18.9729 5.02749L20.3871 3.61328ZM14.2929 8.2928L8.29289 14.2928L9.70711 15.707L15.7071 9.70701L14.2929 8.2928ZM7.5 2V4H9.5V2H7.5ZM2 9.5H4V7.5H2V9.5ZM5.70711 4.29289L4.30711 2.89289L2.89289 4.30711L4.29289 5.70711L5.70711 4.29289ZM16.5 22V20H14.5V22H16.5ZM22 14.5H20V16.5H22V14.5ZM18.2929 19.7071L19.6929 21.1071L21.1071 19.6929L19.7071 18.2929L18.2929 19.7071Z" fill="#33425B"/>
</svg>
