<svg width="24" height="24" viewBox="0 0 24 24" fill="none" xmlns="http://www.w3.org/2000/svg">
<path d="M4.32009 13.313L3.61299 12.6059L3.61299 12.6059L4.32009 13.313ZM7.01318 12.0341C7.40371 11.6436 7.40371 11.0104 7.01318 10.6199C6.62266 10.2294 5.98949 10.2294 5.59897 10.6199L7.01318 12.0341ZM13.3809 18.401C13.7714 18.0105 13.7714 17.3773 13.3809 16.9868C12.9904 16.5963 12.3572 16.5963 11.9667 16.9868L13.3809 18.401ZM10.6874 19.6803L9.98032 18.9732L9.98032 18.9732L10.6874 19.6803ZM19.68 10.6877L18.9729 9.98063L18.9729 9.98063L19.68 10.6877ZM16.9868 11.9668C16.5962 12.3573 16.5962 12.9905 16.9868 13.381C17.3773 13.7715 18.0104 13.7715 18.401 13.381L16.9868 11.9668ZM10.6198 5.59903C10.2293 5.98956 10.2293 6.62272 10.6198 7.01325C11.0103 7.40377 11.6435 7.40377 12.034 7.01325L10.6198 5.59903ZM13.3127 4.3204L14.0198 5.0275L14.0198 5.0275L13.3127 4.3204ZM4.32009 19.6803L3.61299 20.3874L3.61299 20.3874L4.32009 19.6803ZM19.68 4.3204L20.3871 3.61329L20.3871 3.61329L19.68 4.3204ZM15.7071 9.70702C16.0976 9.3165 16.0976 8.68333 15.7071 8.29281C15.3166 7.90229 14.6834 7.90229 14.2929 8.29281L15.7071 9.70702ZM8.29289 14.2928C7.90237 14.6833 7.90237 15.3165 8.29289 15.707C8.68342 16.0975 9.31658 16.0975 9.70711 15.707L8.29289 14.2928ZM5.0272 14.0201L7.01318 12.0341L5.59897 10.6199L3.61299 12.6059L5.0272 14.0201ZM11.9667 16.9868L9.98032 18.9732L11.3945 20.3874L13.3809 18.401L11.9667 16.9868ZM18.9729 9.98063L16.9868 11.9668L18.401 13.381L20.3871 11.3948L18.9729 9.98063ZM12.034 7.01325L14.0198 5.0275L12.6056 3.61329L10.6198 5.59903L12.034 7.01325ZM5.0272 18.9732C3.65943 17.6054 3.65943 15.3879 5.0272 14.0201L3.61299 12.6059C1.46417 14.7547 1.46417 18.2386 3.61299 20.3874L5.0272 18.9732ZM3.61299 20.3874C5.7618 22.5362 9.24572 22.5362 11.3945 20.3874L9.98032 18.9732C8.61256 20.341 6.39497 20.341 5.0272 18.9732L3.61299 20.3874ZM18.9729 5.0275C20.3407 6.39527 20.3407 8.61286 18.9729 9.98063L20.3871 11.3948C22.5359 9.24602 22.5359 5.76211 20.3871 3.61329L18.9729 5.0275ZM20.3871 3.61329C18.2383 1.46448 14.7544 1.46447 12.6056 3.61329L14.0198 5.0275C15.3875 3.65974 17.6051 3.65974 18.9729 5.0275L20.3871 3.61329ZM14.2929 8.29281L8.29289 14.2928L9.70711 15.707L15.7071 9.70702L14.2929 8.29281Z" fill="#33425B"/>
</svg>
