<svg width="24" height="24" viewBox="0 0 24 24" fill="none" xmlns="http://www.w3.org/2000/svg">
<path d="M8.99963 18C9.55192 18 9.99963 17.5523 9.99963 17C9.99963 16.4477 9.55192 16 8.99963 16V18ZM15.0004 16C14.4481 16 14.0004 16.4477 14.0004 17C14.0004 17.5523 14.4481 18 15.0004 18V16ZM15 6C14.4477 6 14 6.44772 14 7C14 7.55228 14.4477 8 15 8V6ZM9 8C9.55228 8 10 7.55228 10 7C10 6.44772 9.55228 6 9 6V8ZM8 11C7.44772 11 7 11.4477 7 12C7 12.5523 7.44772 13 8 13V11ZM16 13C16.5523 13 17 12.5523 17 12C17 11.4477 16.5523 11 16 11V13ZM8.99963 16H7V18H8.99963V16ZM17 16H15.0004V18H17V16ZM15 8H17V6H15V8ZM7 8H9V6H7V8ZM21 12C21 14.2091 19.2091 16 17 16V18C20.3137 18 23 15.3137 23 12H21ZM23 12C23 8.68629 20.3137 6 17 6V8C19.2091 8 21 9.79086 21 12H23ZM3 12C3 9.79086 4.79086 8 7 8V6C3.68629 6 1 8.68629 1 12H3ZM1 12C1 15.3137 3.68629 18 7 18V16C4.79086 16 3 14.2091 3 12H1ZM8 13H16V11H8V13Z" fill="#33425B"/>
</svg>
