<svg width="24" height="24" viewBox="0 0 24 24" fill="none" xmlns="http://www.w3.org/2000/svg">
<path d="M13 2C13 1.44772 12.5523 1 12 1C11.4477 1 11 1.44772 11 2H13ZM11 3.5C11 4.05228 11.4477 4.5 12 4.5C12.5523 4.5 13 4.05228 13 3.5H11ZM13 20.5C13 19.9477 12.5523 19.5 12 19.5C11.4477 19.5 11 19.9477 11 20.5H13ZM11 22C11 22.5523 11.4477 23 12 23C12.5523 23 13 22.5523 13 22H11ZM2 11C1.44772 11 1 11.4477 1 12C1 12.5523 1.44772 13 2 13V11ZM3.5 13C4.05228 13 4.5 12.5523 4.5 12C4.5 11.4477 4.05228 11 3.5 11V13ZM20.5 11C19.9477 11 19.5 11.4477 19.5 12C19.5 12.5523 19.9477 13 20.5 13V11ZM22 13C22.5523 13 23 12.5523 23 12C23 11.4477 22.5523 11 22 11V13ZM3.83975 6.13398C3.36145 5.85783 2.74986 6.02171 2.47372 6.5C2.19758 6.97829 2.36145 7.58988 2.83975 7.86603L3.83975 6.13398ZM4.13878 8.61603C4.61708 8.89217 5.22867 8.72829 5.50481 8.25C5.78095 7.77171 5.61708 7.16012 5.13878 6.88398L4.13878 8.61603ZM19.8612 15.384C19.3829 15.1078 18.7713 15.2717 18.4952 15.75C18.219 16.2283 18.3829 16.8399 18.8612 17.116L19.8612 15.384ZM20.1603 17.866C20.6385 18.1422 21.2501 17.9783 21.5263 17.5C21.8024 17.0217 21.6385 16.4101 21.1603 16.134L20.1603 17.866ZM6.13397 20.1603C5.85783 20.6385 6.02171 21.2501 6.5 21.5263C6.97829 21.8024 7.58988 21.6385 7.86603 21.1603L6.13397 20.1603ZM8.61603 19.8612C8.89217 19.3829 8.72829 18.7713 8.25 18.4952C7.77171 18.219 7.16012 18.3829 6.88397 18.8612L8.61603 19.8612ZM15.384 4.13878C15.1078 4.61708 15.2717 5.22867 15.75 5.50481C16.2283 5.78095 16.8399 5.61708 17.116 5.13878L15.384 4.13878ZM17.866 3.83975C18.1422 3.36145 17.9783 2.74986 17.5 2.47372C17.0217 2.19758 16.4101 2.36145 16.134 2.83975L17.866 3.83975ZM17.116 18.8612C16.8399 18.3829 16.2283 18.219 15.75 18.4952C15.2717 18.7713 15.1078 19.3829 15.384 19.8612L17.116 18.8612ZM16.134 21.1603C16.4101 21.6385 17.0217 21.8024 17.5 21.5263C17.9783 21.2501 18.1422 20.6385 17.866 20.1603L16.134 21.1603ZM2.83975 16.134C2.36145 16.4101 2.19758 17.0217 2.47372 17.5C2.74986 17.9783 3.36145 18.1422 3.83975 17.866L2.83975 16.134ZM5.13878 17.116C5.61708 16.8399 5.78095 16.2283 5.50481 15.75C5.22867 15.2717 4.61708 15.1078 4.13878 15.384L5.13878 17.116ZM18.8612 6.88397C18.3829 7.16012 18.219 7.77171 18.4952 8.25C18.7713 8.72829 19.3829 8.89217 19.8612 8.61602L18.8612 6.88397ZM21.1603 7.86602C21.6385 7.58988 21.8024 6.97829 21.5263 6.5C21.2501 6.02171 20.6385 5.85783 20.1603 6.13397L21.1603 7.86602ZM11 2V3.5H13V2H11ZM11 20.5V22H13V20.5H11ZM2 13H3.5V11H2V13ZM20.5 13H22V11H20.5V13ZM2.83975 7.86603L4.13878 8.61603L5.13878 6.88398L3.83975 6.13398L2.83975 7.86603ZM18.8612 17.116L20.1603 17.866L21.1603 16.134L19.8612 15.384L18.8612 17.116ZM7.86603 21.1603L8.61603 19.8612L6.88397 18.8612L6.13397 20.1603L7.86603 21.1603ZM17.116 5.13878L17.866 3.83975L16.134 2.83975L15.384 4.13878L17.116 5.13878ZM15.384 19.8612L16.134 21.1603L17.866 20.1603L17.116 18.8612L15.384 19.8612ZM3.83975 17.866L5.13878 17.116L4.13878 15.384L2.83975 16.134L3.83975 17.866ZM19.8612 8.61602L21.1603 7.86602L20.1603 6.13397L18.8612 6.88397L19.8612 8.61602Z" fill="#33425B"/>
</svg>
