<svg width="24" height="24" viewBox="0 0 24 24" fill="none" xmlns="http://www.w3.org/2000/svg">
<path d="M8 7C8 7.55228 8.44772 8 9 8C9.55228 8 10 7.55228 10 7H8ZM10 17C10 16.4477 9.55228 16 9 16C8.44772 16 8 16.4477 8 17H10ZM13.7071 8.29289C13.3166 7.90237 12.6834 7.90237 12.2929 8.29289C11.9024 8.68342 11.9024 9.31658 12.2929 9.70711L13.7071 8.29289ZM16 12L16.7071 12.7071C16.8946 12.5196 17 12.2652 17 12C17 11.7348 16.8946 11.4804 16.7071 11.2929L16 12ZM12.2929 14.2929C11.9024 14.6834 11.9024 15.3166 12.2929 15.7071C12.6834 16.0976 13.3166 16.0976 13.7071 15.7071L12.2929 14.2929ZM4 11C3.44772 11 3 11.4477 3 12C3 12.5523 3.44772 13 4 13L4 11ZM21 18V6H19V18H21ZM17 2H12V4H17V2ZM12 22H17V20H12V22ZM8 6V7H10V6H8ZM8 17V18H10V17H8ZM12 20C10.8954 20 10 19.1046 10 18H8C8 20.2091 9.79086 22 12 22V20ZM12 2C9.79086 2 8 3.79086 8 6H10C10 4.89543 10.8954 4 12 4V2ZM21 6C21 3.79086 19.2091 2 17 2V4C18.1046 4 19 4.89543 19 6H21ZM19 18C19 19.1046 18.1046 20 17 20V22C19.2091 22 21 20.2091 21 18H19ZM12.2929 9.70711L15.2929 12.7071L16.7071 11.2929L13.7071 8.29289L12.2929 9.70711ZM15.2929 11.2929L12.2929 14.2929L13.7071 15.7071L16.7071 12.7071L15.2929 11.2929ZM16 11L4 11L4 13L16 13L16 11Z" fill="#33425B"/>
</svg>
