<svg width="24" height="24" viewBox="0 0 24 24" fill="none" xmlns="http://www.w3.org/2000/svg">
<path d="M21 18L20 18L20 18L21 18ZM21 6L22 6L22 6L21 6ZM18 3L18 4L18 3ZM14 2C13.4477 2 13 2.44772 13 3C13 3.55228 13.4477 4 14 4L14 2ZM14 20C13.4477 20 13 20.4477 13 21C13 21.5523 13.4477 22 14 22V20ZM18 21L18 22L18 22L18 21ZM8.70711 6.29289C8.31658 5.90237 7.68342 5.90237 7.29289 6.29289C6.90237 6.68342 6.90237 7.31658 7.29289 7.70711L8.70711 6.29289ZM13 12L13.7071 12.7071C13.8946 12.5196 14 12.2652 14 12C14 11.7348 13.8946 11.4804 13.7071 11.2929L13 12ZM7.29289 16.2929C6.90237 16.6834 6.90237 17.3166 7.29289 17.7071C7.68342 18.0976 8.31658 18.0976 8.70711 17.7071L7.29289 16.2929ZM3 11C2.44772 11 2 11.4477 2 12C2 12.5523 2.44772 13 3 13L3 11ZM22 18V6H20V18H22ZM18 2L14 2L14 4L18 4L18 2ZM14 22H18V20H14V22ZM22 6C22 3.79086 20.2091 2 18 2L18 4C19.1046 4 20 4.89543 20 6L22 6ZM20 18C20 19.1046 19.1046 20 18 20L18 22C20.2091 22 22 20.2091 22 18L20 18ZM7.29289 7.70711L12.2929 12.7071L13.7071 11.2929L8.70711 6.29289L7.29289 7.70711ZM12.2929 11.2929L7.29289 16.2929L8.70711 17.7071L13.7071 12.7071L12.2929 11.2929ZM13 11L3 11L3 13L13 13L13 11Z" fill="#33425B"/>
</svg>
