<svg width="24" height="24" viewBox="0 0 24 24" fill="none" xmlns="http://www.w3.org/2000/svg">
<path d="M3 18L4 18L3 18ZM3 6L2 6L3 6ZM6 3L6 4L6 3ZM10 4C10.5523 4 11 3.55228 11 3C11 2.44772 10.5523 2 10 2L10 4ZM10 22C10.5523 22 11 21.5523 11 21C11 20.4477 10.5523 20 10 20V22ZM6 21L6 22H6V21ZM16.7071 6.29289C16.3166 5.90237 15.6834 5.90237 15.2929 6.29289C14.9024 6.68342 14.9024 7.31658 15.2929 7.70711L16.7071 6.29289ZM21 12L21.7071 12.7071C22.0976 12.3166 22.0976 11.6834 21.7071 11.2929L21 12ZM15.2929 16.2929C14.9024 16.6834 14.9024 17.3166 15.2929 17.7071C15.6834 18.0976 16.3166 18.0976 16.7071 17.7071L15.2929 16.2929ZM11 11C10.4477 11 10 11.4477 10 12C10 12.5523 10.4477 13 11 13L11 11ZM4 18L4 6L2 6L2 18L4 18ZM6 4L10 4L10 2L6 2L6 4ZM10 20H6V22H10V20ZM4 6C4 4.89543 4.89543 4 6 4L6 2C3.79086 2 2 3.79086 2 6L4 6ZM2 18C2 20.2091 3.79086 22 6 22L6 20C4.89543 20 4 19.1046 4 18L2 18ZM15.2929 7.70711L20.2929 12.7071L21.7071 11.2929L16.7071 6.29289L15.2929 7.70711ZM20.2929 11.2929L15.2929 16.2929L16.7071 17.7071L21.7071 12.7071L20.2929 11.2929ZM21 11L11 11L11 13L21 13L21 11Z" fill="#33425B"/>
</svg>
