<svg width="24" height="24" viewBox="0 0 24 24" fill="none" xmlns="http://www.w3.org/2000/svg">
<path d="M12 7C12 7.55229 12.4477 8 13 8C13.5523 8 14 7.55229 14 7H12ZM14 17C14 16.4477 13.5523 16 13 16C12.4477 16 12 16.4477 12 17H14ZM18.7071 8.29289C18.3166 7.90237 17.6834 7.90237 17.2929 8.29289C16.9024 8.68342 16.9024 9.31658 17.2929 9.70711L18.7071 8.29289ZM21 12L21.7071 12.7071C21.8946 12.5196 22 12.2652 22 12C22 11.7348 21.8946 11.4804 21.7071 11.2929L21 12ZM17.2929 14.2929C16.9024 14.6834 16.9024 15.3166 17.2929 15.7071C17.6834 16.0976 18.3166 16.0976 18.7071 15.7071L17.2929 14.2929ZM9 11C8.44772 11 8 11.4477 8 12C8 12.5523 8.44772 13 9 13L9 11ZM4 18V6H2V18H4ZM6 4H10V2H6V4ZM10 20H6V22H10V20ZM12 6V7H14V6H12ZM12 17V18H14V17H12ZM10 22C12.2091 22 14 20.2091 14 18H12C12 19.1046 11.1046 20 10 20V22ZM10 4C11.1046 4 12 4.89543 12 6H14C14 3.79086 12.2091 2 10 2V4ZM4 6C4 4.89543 4.89543 4 6 4V2C3.79086 2 2 3.79086 2 6H4ZM2 18C2 20.2091 3.79086 22 6 22V20C4.89543 20 4 19.1046 4 18H2ZM17.2929 9.70711L20.2929 12.7071L21.7071 11.2929L18.7071 8.29289L17.2929 9.70711ZM20.2929 11.2929L17.2929 14.2929L18.7071 15.7071L21.7071 12.7071L20.2929 11.2929ZM21 11L9 11L9 13L21 13L21 11Z" fill="#33425B"/>
</svg>
