<svg width="24" height="24" viewBox="0 0 24 24" fill="none" xmlns="http://www.w3.org/2000/svg">
<path d="M21 14.9999C20 13.9999 19 13.4999 17.5 13.9999M9 2.99994C10 3.99994 10.5 4.99994 10 6.49994M6 4.99998H6.01M14 3.99998H14.01M19 9.99998H19.01M19 19H19.01M15 10.0002C15.314 9.58231 15.5 9.06285 15.5 8.49994C15.5 7.11923 16.6193 5.99994 18 5.99994C19.3807 5.99994 20.5 4.88065 20.5 3.49994C20.5 2.93714 20.686 2.41777 20.9998 1.99994M11.033 19.0329L4.07649 21.8801C2.84536 22.384 1.61622 21.1548 2.12008 19.9237L4.96717 12.9671M11.033 19.0329L14.3794 17.6633C15.0406 17.3799 15.2129 16.536 14.7077 16.0308L7.96937 9.29236C7.46414 8.78713 6.62 8.95943 6.33676 9.62069L4.96717 12.9671M11.033 19.0329L4.96717 12.9671M6.25 4.99998C6.25 5.13805 6.13808 5.24998 6 5.24998C5.86193 5.24998 5.75 5.13805 5.75 4.99998C5.75 4.86191 5.86193 4.74998 6 4.74998C6.13808 4.74998 6.25 4.86191 6.25 4.99998ZM14.25 3.99998C14.25 4.13805 14.1381 4.24998 14 4.24998C13.8619 4.24998 13.75 4.13805 13.75 3.99998C13.75 3.86191 13.8619 3.74998 14 3.74998C14.1381 3.74998 14.25 3.86191 14.25 3.99998ZM19.25 9.99998C19.25 10.1381 19.1381 10.25 19 10.25C18.8619 10.25 18.75 10.1381 18.75 9.99998C18.75 9.86191 18.8619 9.74998 19 9.74998C19.1381 9.74998 19.25 9.86191 19.25 9.99998ZM19.25 19C19.25 19.1381 19.1381 19.25 19 19.25C18.8619 19.25 18.75 19.1381 18.75 19C18.75 18.8619 18.8619 18.75 19 18.75C19.1381 18.75 19.25 18.8619 19.25 19Z" stroke="#33425B" stroke-width="2" stroke-linecap="round" stroke-linejoin="round"/>
</svg>
