<svg width="24" height="24" viewBox="0 0 24 24" fill="none" xmlns="http://www.w3.org/2000/svg">
<path d="M12 4V6.99995M12 4C12.5523 4 13 3.55228 13 3M12 4C11.4477 4 11 3.55228 11 3M9.5 18.5H14.5M1.5 12.5V16.5M22.5 12.5V16.5M9 13C9 13.5523 8.55228 14 8 14C7.44772 14 7 13.5523 7 13M9 13C9 12.4477 8.55228 12 8 12C7.44772 12 7 12.4477 7 13M9 13H7M17 13C17 13.5523 16.5523 14 16 14C15.4477 14 15 13.5523 15 13M17 13C17 12.4477 16.5523 12 16 12C15.4477 12 15 12.4477 15 13M17 13H15M13 3C13 2.44772 12.5523 2 12 2C11.4477 2 11 2.44772 11 3M13 3H11M3.5 18.9999V9.99995C3.5 8.34309 4.84315 6.99995 6.5 6.99995H17.5C19.1569 6.99995 20.5 8.34309 20.5 9.99995V18.9999C20.5 20.6568 19.1569 21.9999 17.5 21.9999H6.5C4.84315 21.9999 3.5 20.6568 3.5 18.9999Z" stroke="#33425B" stroke-width="2" stroke-linecap="round" stroke-linejoin="round"/>
</svg>
