<svg width="24" height="24" viewBox="0 0 24 24" fill="none" xmlns="http://www.w3.org/2000/svg">
<path d="M14.7191 3.78797C14.7191 2.80966 13.913 2 12.9185 2H11.0814C10.087 2 9.28077 2.80971 9.28077 3.78803C9.28077 4.50577 8.81506 5.146 8.18375 5.5058C7.55207 5.86581 6.76339 5.93682 6.13116 5.57774C5.26961 5.0884 4.15307 5.37034 3.65565 6.21789L2.73816 7.78123C2.24053 8.62913 2.55006 9.72143 3.41198 10.211C4.04415 10.57 4.37731 11.2819 4.37731 12C4.3773 12.7181 4.04413 13.4299 3.41196 13.789C2.55002 14.2785 2.24046 15.3709 2.7381 16.2188L3.65556 17.7821C4.15298 18.6296 5.26954 18.9116 6.13111 18.4222C6.76335 18.0632 7.55204 18.1342 8.18374 18.4942C8.81505 18.854 9.28077 19.4942 9.28077 20.212C9.28077 21.1903 10.087 22 11.0814 22H12.9185C13.9129 22 14.7191 21.1904 14.7191 20.212C14.7191 19.4942 15.1849 18.854 15.8162 18.4941C16.448 18.1341 17.2367 18.063 17.869 18.4221C18.7305 18.9114 19.8469 18.6295 20.3443 17.782L21.2618 16.2186C21.7594 15.3706 21.4498 14.2783 20.5878 13.7887C19.9558 13.4297 19.6226 12.718 19.6226 12C19.6226 11.282 19.9558 10.5702 20.5878 10.2113C21.4497 9.72172 21.7594 8.62937 21.2617 7.78146L20.3442 6.21801C19.8468 5.37052 18.7304 5.08855 17.869 5.57785C17.2367 5.93697 16.448 5.8659 15.8162 5.50584C15.1849 5.14601 14.7191 4.50577 14.7191 3.78797Z" stroke="#33425B" stroke-width="2" stroke-linecap="round" stroke-linejoin="round"/>
<path d="M15 12C15 13.6569 13.6569 15 12 15C10.3431 15 9 13.6569 9 12C9 10.3431 10.3431 9 12 9C13.6569 9 15 10.3431 15 12Z" stroke="#33425B" stroke-width="2" stroke-linecap="round" stroke-linejoin="round"/>
</svg>
