<svg width="24" height="24" viewBox="0 0 24 24" fill="none" xmlns="http://www.w3.org/2000/svg">
<path d="M15 12C15 13.6569 13.6569 15 12 15C10.3431 15 9 13.6569 9 12C9 10.3431 10.3431 9 12 9C13.6569 9 15 10.3431 15 12Z" stroke="#33425B" stroke-width="2" stroke-linecap="round" stroke-linejoin="round"/>
<path d="M15.5088 3C16.5771 3 17.5649 3.56814 18.102 4.49161L21.592 10.4916C22.1344 11.4241 22.1344 12.5759 21.592 13.5084L18.102 19.5084C17.5649 20.4319 16.5771 21 15.5088 21H8.49C7.42167 21 6.43394 20.4319 5.89678 19.5084L2.40678 13.5084C1.86441 12.5759 1.86441 11.4241 2.40678 10.4916L5.89678 4.49161C6.43394 3.56814 7.42167 3 8.49 3H15.5088Z" stroke="#33425B" stroke-width="2" stroke-linecap="round" stroke-linejoin="round"/>
</svg>
