<svg width="24" height="24" viewBox="0 0 24 24" fill="none" xmlns="http://www.w3.org/2000/svg">
<path d="M9 3.99997C9.55228 3.99997 10 3.55226 10 2.99997C10 2.44769 9.55228 1.99997 9 1.99997V3.99997ZM22 15C22 14.4477 21.5523 14 21 14C20.4477 14 20 14.4477 20 15H22ZM8 13.5009L7 13.5009C7 13.9054 7.24364 14.27 7.61732 14.4248C7.99099 14.5796 8.42111 14.494 8.70711 14.208L8 13.5009ZM15.4665 10.6393L16.3549 10.1801L16.3549 10.1801L15.4665 10.6393ZM15.0944 10.5069L15.1136 11.5067L15.0944 10.5069ZM15.3549 10.5298L15.7969 9.63273L15.3549 10.5298ZM16.8488 13.3784L16.1558 12.6573L16.1558 12.6573L16.8488 13.3784ZM16.0267 14.0049L15.9621 13.007L16.0267 14.0049ZM15.6123 13.8284L14.848 14.4733L14.848 14.4733L15.6123 13.8284ZM21.2396 6.85138L21.9325 6.13037L21.9325 6.13037L21.2396 6.85138ZM21.9454 7.68844L20.9968 8.005L21.9454 7.68844ZM21.2396 9.15862L21.9325 9.87964L21.9325 9.87964L21.2396 9.15862ZM21.9454 8.32157L20.9968 8.005L21.9454 8.32157ZM15.6123 2.18152L16.3766 2.82642L16.3766 2.82642L15.6123 2.18152ZM16.8488 2.63156L16.1558 3.35257L16.1558 3.35257L16.8488 2.63156ZM16.0267 2.00501L15.9621 3.00293L16.0267 2.00501ZM15.4687 5.36926L16.366 5.81082L15.4687 5.36926ZM15.0944 5.51611L15.1407 6.51504L15.0944 5.51611ZM15.3651 5.47783L15.8478 6.35363L15.8478 6.35363L15.3651 5.47783ZM18 20H6V22H18V20ZM4 18V5.99997H2V18H4ZM6 3.99997H9V1.99997H6V3.99997ZM20 15V18H22V15H20ZM6 20C4.89543 20 4 19.1045 4 18H2C2 20.2091 3.79086 22 6 22V20ZM18 22C20.2091 22 22 20.2091 22 18H20C20 19.1045 19.1046 20 18 20V22ZM4 5.99997C4 4.8954 4.89543 3.99997 6 3.99997V1.99997C3.79086 1.99997 2 3.79083 2 5.99997H4ZM16.4944 5.10689V3.20837H14.4944V5.10689H16.4944ZM16.1558 3.35257L20.5467 7.57239L21.9325 6.13037L17.5417 1.91055L16.1558 3.35257ZM20.5467 8.43761L16.1558 12.6573L17.5417 14.0994L21.9325 9.87964L20.5467 8.43761ZM16.4944 12.8015V10.9032H14.4944V12.8015H16.4944ZM15.048 4.51719C10.1605 4.74401 7 8.64049 7 13.5009L9 13.5009C9 9.54057 11.4812 6.68487 15.1407 6.51504L15.048 4.51719ZM15.0751 9.50706C12.5321 9.55602 9.97937 10.1074 7.29289 12.7938L8.70711 14.208C10.9388 11.9763 12.9462 11.5484 15.1136 11.5067L15.0751 9.50706ZM16.4944 10.9032C16.4944 10.85 16.4952 10.7487 16.4875 10.6557C16.4786 10.5498 16.4539 10.3718 16.3549 10.1801L14.5781 11.0984C14.507 10.9607 14.4963 10.8447 14.4944 10.8223C14.4935 10.8109 14.4938 10.8092 14.4941 10.8266C14.4944 10.844 14.4944 10.8658 14.4944 10.9032H16.4944ZM15.1136 11.5067C15.1504 11.506 15.1715 11.5056 15.1882 11.5056C15.2049 11.5055 15.2024 11.5059 15.1903 11.5051C15.1649 11.5035 15.05 11.4943 14.913 11.4268L15.7969 9.63273C15.6053 9.53835 15.4288 9.51646 15.3211 9.5094C15.2278 9.50329 15.1268 9.50607 15.0751 9.50706L15.1136 11.5067ZM16.3549 10.1801C16.2325 9.94329 16.036 9.75056 15.7969 9.63273L14.913 11.4268C14.7685 11.3557 14.6521 11.2414 14.5781 11.0984L16.3549 10.1801ZM16.1558 12.6573C16.0475 12.7615 15.9606 12.8449 15.885 12.9153C15.8087 12.9862 15.7569 13.0316 15.72 13.0612C15.681 13.0925 15.6811 13.0879 15.7098 13.073C15.7419 13.0562 15.8308 13.0155 15.9621 13.007L16.0913 15.0028C16.5142 14.9754 16.8233 14.7403 16.9724 14.6206C17.1449 14.482 17.3428 14.2905 17.5417 14.0994L16.1558 12.6573ZM14.4944 12.8015C14.4944 13.0774 14.4935 13.3527 14.5131 13.5731C14.5301 13.7636 14.5747 14.1494 14.848 14.4733L16.3766 13.1835C16.4614 13.284 16.4937 13.3763 16.5039 13.4112C16.5129 13.4422 16.5096 13.4454 16.5052 13.3956C16.501 13.3485 16.4978 13.2797 16.4961 13.1756C16.4944 13.0723 16.4944 12.9518 16.4944 12.8015H14.4944ZM15.9621 13.007C16.1204 12.9967 16.2742 13.0622 16.3766 13.1835L14.848 14.4733C15.155 14.837 15.6163 15.0335 16.0913 15.0028L15.9621 13.007ZM20.5467 7.57239C20.7681 7.78516 20.8895 7.90292 20.97 7.99432C21.0431 8.07724 21.0181 8.06883 20.9968 8.005L22.894 7.37188C22.7947 7.07433 22.6261 6.8485 22.4704 6.67188C22.3222 6.50374 22.1297 6.31982 21.9325 6.13037L20.5467 7.57239ZM21.9325 9.87964C22.1297 9.69019 22.3222 9.50628 22.4704 9.33814C22.6261 9.16152 22.7947 8.93569 22.894 8.63814L20.9968 8.005C21.0181 7.94117 21.0431 7.93276 20.97 8.01567C20.8895 8.10708 20.7681 8.22483 20.5467 8.43761L21.9325 9.87964ZM20.9968 8.005L20.9968 8.005L22.894 8.63814C23.0311 8.22719 23.0311 7.78282 22.894 7.37188L20.9968 8.005ZM16.4944 3.20837C16.4944 3.05807 16.4944 2.93758 16.4961 2.83433C16.4978 2.73022 16.501 2.66136 16.5052 2.6143C16.5096 2.56448 16.5129 2.5677 16.5039 2.59873C16.4937 2.63355 16.4614 2.72587 16.3766 2.82642L14.848 1.53661C14.5747 1.8605 14.5301 2.24627 14.5131 2.43676C14.4935 2.65718 14.4944 2.93248 14.4944 3.20837H16.4944ZM17.5417 1.91055C17.3428 1.71938 17.1449 1.52792 16.9724 1.38935C16.8233 1.2696 16.5142 1.03448 16.0913 1.0071L15.9621 3.00293C15.8308 2.99443 15.7419 2.95371 15.7097 2.93693C15.6811 2.92199 15.681 2.91738 15.72 2.9487C15.7569 2.97829 15.8087 3.0237 15.885 3.09462C15.9606 3.16496 16.0475 3.24842 16.1558 3.35257L17.5417 1.91055ZM16.3766 2.82642C16.2742 2.94768 16.1204 3.01317 15.9621 3.00293L16.0913 1.0071C15.6163 0.976358 15.155 1.17285 14.848 1.53661L16.3766 2.82642ZM14.4944 5.10689C14.4944 5.14408 14.4944 5.16668 14.4941 5.18484C14.4939 5.20308 14.4935 5.20313 14.4942 5.194C14.4953 5.17929 14.5037 5.06542 14.5715 4.92771L16.366 5.81082C16.4594 5.6209 16.4807 5.44591 16.4882 5.34809C16.4951 5.25904 16.4944 5.16123 16.4944 5.10689H14.4944ZM15.1407 6.51504C15.1987 6.51234 15.2973 6.50842 15.3859 6.49769C15.4794 6.48635 15.658 6.45819 15.8478 6.35363L14.8824 4.60203C15.0212 4.52554 15.1377 4.51313 15.1453 4.51221C15.1525 4.51133 15.1507 4.51184 15.1308 4.51304C15.1111 4.51424 15.0867 4.51539 15.048 4.51719L15.1407 6.51504ZM14.5715 4.92771C14.6019 4.86589 14.6447 4.80142 14.7022 4.74123C14.7597 4.68104 14.8221 4.63528 14.8824 4.60203L15.8478 6.35363C16.0734 6.22927 16.2522 6.04198 16.366 5.81082L14.5715 4.92771Z" fill="#33425B"/>
</svg>
