<svg width="24" height="24" viewBox="0 0 24 24" fill="none" xmlns="http://www.w3.org/2000/svg">
<path d="M12.5 4.19869V8.49851C6 8.49851 2 12.5002 2 20.0033C6 15.5015 8.5 15.5015 12.5 15.5015V19.8012C12.5 20.3884 12.5 20.682 12.6173 20.8216C12.7191 20.9427 12.8722 21.0086 13.0301 20.999C13.212 20.9881 13.4249 20.786 13.8507 20.3817L20.8453 13.7416C21.4842 13.1351 21.8036 12.8319 21.9225 12.4786C22.0269 12.168 22.0269 11.8318 21.9225 11.5213C21.8036 11.168 21.4842 10.8647 20.8453 10.2582L13.8507 3.61813C13.4249 3.21392 13.212 3.01181 13.0301 3.00085C12.8722 2.99133 12.7191 3.05714 12.6173 3.17829C12.5 3.31784 12.5 3.61146 12.5 4.19869Z" stroke="#33425B" stroke-width="2" stroke-linecap="round" stroke-linejoin="round"/>
</svg>
