<svg width="24" height="24" viewBox="0 0 24 24" fill="none" xmlns="http://www.w3.org/2000/svg">
<path d="M6 7H9.5M9.5 7H11.5417M9.5 7V6M11.5417 7H13M11.5417 7C11.2193 8.9342 10.4516 10.6521 9.33691 12.0481M10.7083 13.0083C10.2717 12.79 9.79413 12.4498 9.33691 12.0481M9.33691 12.0481C8.57257 11.3766 7.865 10.5333 7.5 9.8M9.33691 12.0481C8.43455 13.1783 7.30484 14.0976 6 14.75M12.7164 16H17.2836M12.7164 16L12 18.0015M12.7164 16L14.0961 12.1449C14.3741 11.3683 14.5131 10.98 14.7172 10.8709C14.8939 10.7764 15.1061 10.7764 15.2828 10.8709C15.4869 10.98 15.6259 11.3683 15.9039 12.1449L17.2836 16M17.2836 16L18 18.0015M6 3H18C19.6569 3 21 4.34315 21 6V18C21 19.6569 19.6569 21 18 21H6C4.34315 21 3 19.6569 3 18V6C3 4.34315 4.34315 3 6 3Z" stroke="#33425B" stroke-width="2" stroke-linecap="round" stroke-linejoin="round"/>
</svg>
