<svg width="24" height="24" viewBox="0 0 24 24" fill="none" xmlns="http://www.w3.org/2000/svg">
<path d="M2 5H8M8 5H11.5M8 5V3M11.5 5H14M11.5 5C10.994 8.03598 9.84793 10.6879 8.19132 12.891M10.5 14.5C9.76489 14.1324 8.96222 13.5635 8.19132 12.891M8.19132 12.891C6.86486 11.734 5.63244 10.2706 5 9M8.19132 12.891C6.57398 15.0419 4.47002 16.765 2 18M13.0737 18H20.9263M13.0737 18L12 21M13.0737 18L15.4936 11.239C15.9568 9.94464 16.1885 9.29747 16.5286 9.11566C16.8232 8.95825 17.1768 8.95825 17.4714 9.11566C17.8115 9.29747 18.0432 9.94464 18.5064 11.239L20.9263 18M20.9263 18L22 21" stroke="#33425B" stroke-width="2" stroke-linecap="round" stroke-linejoin="round"/>
</svg>
