<svg width="24" height="24" viewBox="0 0 24 24" fill="none" xmlns="http://www.w3.org/2000/svg">
<path d="M4.4959 5.40953C4.44589 4.85951 3.95948 4.45417 3.40947 4.50417C2.85945 4.55417 2.45411 5.04058 2.50411 5.5906L4.4959 5.40953ZM4.60315 17.6346L5.59904 17.5441L4.60315 17.6346ZM17.2691 7.99435C17.2191 8.54436 17.6245 9.03077 18.1745 9.08077C18.7245 9.13078 19.2109 8.72543 19.2609 8.17542L17.2691 7.99435ZM19.4959 5.5906C19.5459 5.04058 19.1406 4.55417 18.5905 4.50417C18.0405 4.45417 17.5541 4.85951 17.5041 5.40953L19.4959 5.5906ZM9.5 23.0001C10.0523 23.0001 10.5 22.5523 10.5 22.0001C10.5 21.4478 10.0523 21.0001 9.5 21.0001V23.0001ZM5.15838 20.5288L4.29796 21.0384L4.29796 21.0384L5.15838 20.5288ZM6.45087 21.7091L6.88046 20.8061L6.88046 20.8061L6.45087 21.7091ZM18 15C18 14.4477 17.5523 14 17 14C16.4477 14 16 14.4477 16 15H18ZM17 17H16C16 17.4589 16.3123 17.8588 16.7575 17.9701L17 17ZM18.7575 18.4701C19.2933 18.6041 19.8362 18.2783 19.9701 17.7425C20.1041 17.2067 19.7783 16.6638 19.2425 16.5299L18.7575 18.4701ZM7.07865 3.61236L7.9469 4.10849L7.9469 4.10849L7.07865 3.61236ZM14.9213 3.61236L14.0531 4.10849L14.0531 4.10849L14.9213 3.61236ZM2 4.5C1.44772 4.5 1 4.94772 1 5.5C1 6.05228 1.44772 6.5 2 6.5V4.5ZM20 6.5C20.5523 6.5 21 6.05228 21 5.5C21 4.94772 20.5523 4.5 20 4.5V6.5ZM13.4599 2.09871L13.1496 3.04936L13.1496 3.04936L13.4599 2.09871ZM14.1822 2.51789L14.8537 1.77683L14.8537 1.77683L14.1822 2.51789ZM7.81776 2.51789L7.14631 1.77683L7.14631 1.77683L7.81776 2.51789ZM8.54007 2.09871L8.22978 1.14807L8.22978 1.14807L8.54007 2.09871ZM2.50411 5.5906L3.60725 17.7252L5.59904 17.5441L4.4959 5.40953L2.50411 5.5906ZM19.2609 8.17542L19.4959 5.5906L17.5041 5.40953L17.2691 7.99435L19.2609 8.17542ZM9.38343 23.0001H9.5V21.0001H9.38343V23.0001ZM3.60725 17.7252C3.67588 18.48 3.73184 19.1036 3.81813 19.6093C3.90649 20.1272 4.03799 20.5994 4.29796 21.0384L6.0188 20.0192C5.93367 19.8755 5.8576 19.6712 5.78964 19.2729C5.71961 18.8624 5.67051 18.3302 5.59904 17.5441L3.60725 17.7252ZM9.38343 21.0001C8.59405 21.0001 8.05958 20.9993 7.64449 20.9668C7.24169 20.9351 7.03132 20.8779 6.88046 20.8061L6.02128 22.6122C6.48197 22.8313 6.96422 22.9195 7.48797 22.9606C7.99944 23.0008 8.62548 23.0001 9.38343 23.0001V21.0001ZM4.29796 21.0384C4.70319 21.7226 5.30318 22.2705 6.02128 22.6122L6.88046 20.8061C6.52141 20.6353 6.22142 20.3613 6.0188 20.0192L4.29796 21.0384ZM21 17C21 19.2091 19.2091 21 17 21V23C20.3137 23 23 20.3137 23 17H21ZM17 21C14.7909 21 13 19.2091 13 17H11C11 20.3137 13.6863 23 17 23V21ZM13 17C13 14.7909 14.7909 13 17 13V11C13.6863 11 11 13.6863 11 17H13ZM17 13C19.2091 13 21 14.7909 21 17H23C23 13.6863 20.3137 11 17 11V13ZM16 15V17H18V15H16ZM16.7575 17.9701L18.7575 18.4701L19.2425 16.5299L17.2425 16.0299L16.7575 17.9701ZM6.86824 5.99614L7.9469 4.10849L6.21041 3.11622L5.13176 5.00386L6.86824 5.99614ZM9.85703 3H12.143V1H9.85703V3ZM14.0531 4.10849L15.1318 5.99614L16.8682 5.00386L15.7896 3.11622L14.0531 4.10849ZM2 6.5H6V4.5H2V6.5ZM6 6.5H16V4.5H6V6.5ZM16 6.5H20V4.5H16V6.5ZM12.143 3C12.8871 3 13.0343 3.01172 13.1496 3.04936L13.7702 1.14807C13.2806 0.988278 12.7515 1 12.143 1V3ZM15.7896 3.11622C15.4877 2.58787 15.2353 2.12262 14.8537 1.77683L13.5108 3.25894C13.6007 3.34038 13.6839 3.46237 14.0531 4.10849L15.7896 3.11622ZM13.1496 3.04936C13.2834 3.09303 13.4065 3.16445 13.5108 3.25894L14.8537 1.77683C14.5408 1.49334 14.1716 1.27908 13.7702 1.14807L13.1496 3.04936ZM7.9469 4.10849C8.31611 3.46237 8.39932 3.34038 8.4892 3.25894L7.14631 1.77683C6.76468 2.12262 6.51232 2.58787 6.21041 3.11622L7.9469 4.10849ZM9.85703 1C9.2485 1 8.71935 0.988278 8.22978 1.14807L8.85036 3.04936C8.96566 3.01172 9.11286 3 9.85703 3V1ZM8.4892 3.25894C8.5935 3.16445 8.71657 3.09303 8.85036 3.04936L8.22978 1.14807C7.82841 1.27908 7.4592 1.49334 7.14631 1.77683L8.4892 3.25894Z" fill="#33425B"/>
</svg>
