<svg width="24" height="24" viewBox="0 0 24 24" fill="none" xmlns="http://www.w3.org/2000/svg">
<path d="M8.07865 3.61236L8.9469 4.10849L8.9469 4.10849L8.07865 3.61236ZM15.9213 3.61236L15.0531 4.10849L15.0531 4.10849L15.9213 3.61236ZM3 4.5C2.44772 4.5 2 4.94772 2 5.5C2 6.05228 2.44772 6.5 3 6.5V4.5ZM21 6.5C21.5523 6.5 22 6.05228 22 5.5C22 4.94772 21.5523 4.5 21 4.5V6.5ZM14.4599 2.09871L14.1496 3.04936L14.1496 3.04936L14.4599 2.09871ZM15.1822 2.51789L15.8537 1.77683L15.8537 1.77683L15.1822 2.51789ZM8.81776 2.51789L8.14631 1.77683L8.14631 1.77683L8.81776 2.51789ZM9.54007 2.09871L9.22978 1.14807L9.22978 1.14807L9.54007 2.09871ZM5.49589 5.40946C5.44589 4.85945 4.95948 4.45411 4.40946 4.50411C3.85945 4.55411 3.45411 5.04052 3.50411 5.59054L5.49589 5.40946ZM5.60314 17.6346L6.59904 17.544L5.60314 17.6346ZM18.3969 17.6346L19.3928 17.7251L19.3928 17.7251L18.3969 17.6346ZM20.4959 5.59054C20.5459 5.04052 20.1406 4.55411 19.5905 4.50411C19.0405 4.45411 18.5541 4.85945 18.5041 5.40946L20.4959 5.59054ZM16.5491 21.7091L16.1195 20.806L16.1195 20.806L16.5491 21.7091ZM17.8416 20.5288L18.702 21.0383L18.702 21.0383L17.8416 20.5288ZM6.15838 20.5288L5.29796 21.0383L5.29796 21.0383L6.15838 20.5288ZM7.45087 21.7091L7.88046 20.806L7.88046 20.806L7.45087 21.7091ZM10.2071 10.2929C9.81659 9.90237 9.18343 9.90237 8.7929 10.2929C8.40238 10.6834 8.40238 11.3166 8.7929 11.7071L10.2071 10.2929ZM13.7929 16.7071C14.1834 17.0976 14.8166 17.0976 15.2071 16.7071C15.5976 16.3166 15.5976 15.6834 15.2071 15.2929L13.7929 16.7071ZM8.7929 15.2929C8.40238 15.6834 8.40238 16.3166 8.7929 16.7071C9.18343 17.0976 9.81659 17.0976 10.2071 16.7071L8.7929 15.2929ZM15.2071 11.7071C15.5976 11.3166 15.5976 10.6834 15.2071 10.2929C14.8166 9.90237 14.1834 9.90237 13.7929 10.2929L15.2071 11.7071ZM7.86824 5.99614L8.9469 4.10849L7.21041 3.11622L6.13176 5.00386L7.86824 5.99614ZM10.857 3H13.143V1H10.857V3ZM15.0531 4.10849L16.1318 5.99614L17.8682 5.00386L16.7896 3.11622L15.0531 4.10849ZM3 6.5H7V4.5H3V6.5ZM7 6.5H17V4.5H7V6.5ZM17 6.5H21V4.5H17V6.5ZM13.143 3C13.8871 3 14.0343 3.01172 14.1496 3.04936L14.7702 1.14807C14.2806 0.988278 13.7515 1 13.143 1V3ZM16.7896 3.11622C16.4877 2.58787 16.2353 2.12262 15.8537 1.77683L14.5108 3.25894C14.6007 3.34038 14.6839 3.46237 15.0531 4.10849L16.7896 3.11622ZM14.1496 3.04936C14.2834 3.09303 14.4065 3.16445 14.5108 3.25894L15.8537 1.77683C15.5408 1.49334 15.1716 1.27908 14.7702 1.14807L14.1496 3.04936ZM8.9469 4.10849C9.31611 3.46237 9.39932 3.34038 9.4892 3.25894L8.14631 1.77683C7.76468 2.12262 7.51232 2.58787 7.21041 3.11622L8.9469 4.10849ZM10.857 1C10.2485 1 9.71935 0.988278 9.22978 1.14807L9.85036 3.04936C9.96566 3.01172 10.1129 3 10.857 3V1ZM9.4892 3.25894C9.5935 3.16445 9.71657 3.09303 9.85036 3.04936L9.22978 1.14807C8.82841 1.27908 8.4592 1.49334 8.14631 1.77683L9.4892 3.25894ZM3.50411 5.59054L4.60725 17.7251L6.59904 17.544L5.49589 5.40946L3.50411 5.59054ZM10.3834 23H13.6166V21H10.3834V23ZM19.3928 17.7251L20.4959 5.59054L18.5041 5.40946L17.401 17.544L19.3928 17.7251ZM13.6166 23C14.3745 23 15.0006 23.0007 15.512 22.9606C16.0358 22.9195 16.518 22.8313 16.9787 22.6121L16.1195 20.806C15.9687 20.8778 15.7583 20.9351 15.3555 20.9667C14.9404 20.9993 14.406 21 13.6166 21V23ZM17.401 17.544C17.3295 18.3302 17.2804 18.8624 17.2104 19.2728C17.1424 19.6711 17.0663 19.8754 16.9812 20.0192L18.702 21.0383C18.962 20.5994 19.0935 20.1271 19.1819 19.6092C19.2682 19.1035 19.3241 18.4799 19.3928 17.7251L17.401 17.544ZM16.9787 22.6121C17.6968 22.2705 18.2968 21.7226 18.702 21.0383L16.9812 20.0192C16.7786 20.3613 16.4786 20.6352 16.1195 20.806L16.9787 22.6121ZM4.60725 17.7251C4.67587 18.48 4.73184 19.1035 4.81813 19.6092C4.90649 20.1271 5.03799 20.5994 5.29796 21.0383L7.0188 20.0192C6.93367 19.8754 6.85759 19.6711 6.78964 19.2728C6.7196 18.8624 6.6705 18.3302 6.59904 17.544L4.60725 17.7251ZM10.3834 21C9.59405 21 9.05958 20.9993 8.64448 20.9667C8.24168 20.9351 8.03132 20.8778 7.88046 20.806L7.02127 22.6121C7.48197 22.8313 7.96421 22.9195 8.48797 22.9606C8.99943 23.0007 9.62547 23 10.3834 23V21ZM5.29796 21.0383C5.70319 21.7226 6.30317 22.2705 7.02128 22.6121L7.88046 20.806C7.52141 20.6352 7.22142 20.3613 7.0188 20.0192L5.29796 21.0383ZM8.7929 11.7071L11.2929 14.2071L12.7071 12.7929L10.2071 10.2929L8.7929 11.7071ZM11.2929 14.2071L13.7929 16.7071L15.2071 15.2929L12.7071 12.7929L11.2929 14.2071ZM10.2071 16.7071L12.7071 14.2071L11.2929 12.7929L8.7929 15.2929L10.2071 16.7071ZM12.7071 14.2071L15.2071 11.7071L13.7929 10.2929L11.2929 12.7929L12.7071 14.2071Z" fill="#33425B"/>
</svg>
