<svg width="24" height="24" viewBox="0 0 24 24" fill="none" xmlns="http://www.w3.org/2000/svg">
<path d="M7 5.5L8.07865 3.61236C8.41422 3.02512 8.582 2.7315 8.81776 2.51789C9.02635 2.32889 9.27249 2.18605 9.54007 2.09871C9.84251 2 10.1807 2 10.857 2H13.143C13.8193 2 14.1575 2 14.4599 2.09871C14.7275 2.18605 14.9737 2.32889 15.1822 2.51789C15.418 2.7315 15.5858 3.02512 15.9213 3.61236L17 5.5M7 5.5H3M7 5.5H17M17 5.5H21M4.5 5.5L5.60314 17.6346C5.74323 19.1756 5.81328 19.9461 6.15838 20.5288C6.4623 21.0419 6.91229 21.4529 7.45087 21.7091C8.06242 22 8.83609 22 10.3834 22H13.6166C15.1639 22 15.9376 22 16.5491 21.7091C17.0877 21.4529 17.5377 21.0419 17.8416 20.5288C18.1867 19.9461 18.2568 19.1756 18.3969 17.6346L19.5 5.5" stroke="#33425B" stroke-width="2" stroke-linecap="round" stroke-linejoin="round"/>
</svg>
