<svg width="24" height="24" viewBox="0 0 24 24" fill="none" xmlns="http://www.w3.org/2000/svg">
<path d="M3 20C2.44772 20 2 20.4477 2 21C2 21.5523 2.44772 22 3 22V20ZM21 22C21.5523 22 22 21.5523 22 21C22 20.4477 21.5523 20 21 20V22ZM6.29289 9.29289C5.90237 9.68342 5.90237 10.3166 6.29289 10.7071C6.68342 11.0976 7.31658 11.0976 7.70711 10.7071L6.29289 9.29289ZM12 5L12.7071 4.29289C12.3166 3.90237 11.6834 3.90237 11.2929 4.29289L12 5ZM16.2929 10.7071C16.6834 11.0976 17.3166 11.0976 17.7071 10.7071C18.0976 10.3166 18.0976 9.68342 17.7071 9.29289L16.2929 10.7071ZM11 15C11 15.5523 11.4477 16 12 16C12.5523 16 13 15.5523 13 15H11ZM3 22H21V20H3V22ZM7.70711 10.7071L12.7071 5.70711L11.2929 4.29289L6.29289 9.29289L7.70711 10.7071ZM11.2929 5.70711L16.2929 10.7071L17.7071 9.29289L12.7071 4.29289L11.2929 5.70711ZM11 5V15H13V5H11Z" fill="#33425B"/>
</svg>
